<svg version="1.1" id="레이어_1" xmlns="http://www.w3.org/2000/svg" x="0" y="0" viewBox="0 0 96 100" xml:space="preserve"><style>.st0{opacity:.5;enable-background:new}.st0,.st1{fill:#fff}</style><g id="그룹_19243" transform="translate(-1012.056 -824)"><circle id="타원_35" class="st0" cx="1040.1" cy="893.3" r="9"/><circle id="타원_36" class="st0" cx="1080.1" cy="893.3" r="9"/><g id="그룹_19234" transform="translate(300.056 625.872)"><g id="그룹_7" transform="translate(712 198.128)"><path id="패스_8" class="st1" d="M10.1 70.3h-2v-49c0-.6.4-1 1-1h57.1c.6 0 1 .4 1 1v32.2h-2V22.4H10.1v47.9z"/></g><g id="그룹_8" transform="translate(770.035 213.785)"><path id="패스_9" class="st1" d="M28.9 53.2H18.7v-2h9.2V28.7c-.1-2.2-1.2-4.2-3-5.3-.8-.5-1.6-.8-2.6-1H8.1v-2h14.4c1.2.2 2.4.6 3.5 1.3 2.4 1.5 3.8 4.1 3.9 6.9v23.6c0 .6-.5 1-1 1z"/></g><g id="그룹_9" transform="translate(721.909 237.537)"><path id="패스_10" class="st1" d="M18 40.2c-5.5 0-10-4.5-9.9-10 0-5.5 4.5-10 10-10s9.9 4.5 10 10c-.1 5.6-4.6 10-10.1 10zm0-17.8c-4.4 0-7.9 3.5-7.9 7.9s3.5 7.9 7.9 7.9 7.9-3.5 7.9-7.9-3.5-7.9-7.9-7.9z"/></g><g id="그룹_10" transform="translate(761.458 237.537)"><path id="패스_11" class="st1" d="M18 40.2c-5.5 0-10-4.5-10-10s4.5-10 10-10 10 4.5 10 10c0 5.6-4.5 10-10 10zm0-17.8c-4.4 0-7.9 3.5-7.9 7.9s3.5 7.9 7.9 7.9 7.9-3.5 7.9-7.9-3.5-7.9-7.9-7.9z"/></g><g id="그룹_11" transform="translate(740.911 244.619)"><path id="사각형_15" class="st1" d="M8.1 20.3h21.2v2H8.1z"/></g><g id="그룹_12" transform="translate(777.944 226.341)"><path id="사각형_16" class="st1" d="M8.1 20.3h12.7v2H8.1z"/></g></g></g></svg>