<svg version="1.1" id="레이어_1" xmlns="http://www.w3.org/2000/svg" x="0" y="0" viewBox="0 0 96 100" xml:space="preserve"><style>.st0{fill:none}.st1{fill:#3e3e3e}</style><g id="그룹_19239" transform="translate(-1284 -816)"><g id="그룹_19237" transform="translate(44.023 65.84)"><g id="그룹_19236" transform="translate(1239.977 787.639)"><g id="사각형_7343"><path class="st0" d="M19 12h49v39H19z" transform="translate(0 -.479)"/><path class="st1" d="M66.8 50.9H20.1c-.6 0-1.1-.5-1.1-1.1V13.1c0-.6.5-1.1 1.1-1.1h46.7c.6 0 1.1.5 1.1 1.1v36.7c0 .6-.5 1.1-1.1 1.1zm-45.6-2.2h44.4V14.2H21.2v34.5z" transform="translate(0 -.479)"/></g></g><g id="사각형_7344"><path class="st0" d="M19 12h13v21H19z" transform="translate(1257.977 787.16)"/><path class="st1" d="M31.9 32.9H19V12h13v20.9zm-10.7-2.2h8.4V14.2h-8.4v16.5z" transform="translate(1257.977 787.16)"/></g></g><g id="그룹_19238" transform="translate(53.023 28.84)"><g id="그룹_19236-2" transform="translate(1239.977 787.639)"><g id="사각형_7343-2"><path class="st0" d="M19 12h49v39H19z" transform="translate(0 -.479)"/><path class="st1" d="M66.8 50.9H20.1c-.6 0-1.1-.5-1.1-1.1V13.1c0-.6.5-1.1 1.1-1.1h46.7c.6 0 1.1.5 1.1 1.1v36.7c0 .6-.5 1.1-1.1 1.1zm-45.6-2.2h44.4V14.2H21.2v34.5z" transform="translate(0 -.479)"/></g></g><g id="사각형_7344-2"><path class="st0" d="M19 12h13v21H19z" transform="translate(1257.977 787.16)"/><path class="st1" d="M31.9 32.9H19V12h13v20.9zm-10.7-2.2h8.4V14.2h-8.4v16.5z" transform="translate(1257.977 787.16)"/></g></g></g></svg>