<svg version="1.1" id="레이어_1" xmlns="http://www.w3.org/2000/svg" x="0" y="0" viewBox="0 0 96 100" xml:space="preserve"><style>.st0{fill:#3e3e3e}</style><g id="그룹_19240" transform="translate(-1541.026 -816.516)"><path class="st0" d="M1620.2 903.3H1558c-.6 0-1.1-.5-1.1-1.1v-43.4c0-.3.1-.6.4-.8l31.1-27.9c.4-.4 1.1-.4 1.5 0L1621 858c.2.2.4.5.4.8v43.4c-.1.6-.6 1.1-1.2 1.1zm-61.1-2.2h59.9v-41.8l-30-26.9-30 26.9v41.8z" id="패스_48039"/><path class="st0" d="M1585.7 881.8c-.3 0-.6-.1-.8-.3l-8.3-8.3c-.4-.4-.4-1.2 0-1.6.4-.4 1.2-.4 1.6 0l7.5 7.5 13.7-13.7c.4-.4 1.2-.4 1.6 0 .4.4.4 1.2 0 1.6l-14.5 14.5c-.2.2-.5.3-.8.3z" id="패스_48040"/></g></svg>