<svg version="1.1" id="레이어_1" xmlns="http://www.w3.org/2000/svg" x="0" y="0" viewBox="0 0 96 100" xml:space="preserve"><style>.st0{fill:#fff}.st1{fill:#3e3e3e}</style><g id="그룹_19233" transform="translate(.029 .496)"><g id="그룹_19229_1_" transform="translate(0 21.399)"><g id="그룹_19228_1_" transform="translate(0 1.132)"><g id="사각형_7331_1_"><path class="st0" d="M10 32.2h77.9v39.7H10z"/><path class="st1" d="M87.9 73H10c-.6 0-1.1-.5-1.1-1.1V32.2c0-.6.5-1.1 1.1-1.1h77.9c.6 0 1.1.5 1.1 1.1v39.7c0 .6-.5 1.1-1.1 1.1zm-76.8-2.2h75.6V33.3H11.1v37.5z"/></g><g id="사각형_7333_1_"><path class="st0" d="M10 28h77.9v39.7H10z"/><path class="st1" d="M87.9 68.8H10c-.6 0-1.1-.5-1.1-1.1V28c0-.6.5-1.1 1.1-1.1h77.9c.6 0 1.1.5 1.1 1.1v39.7c0 .6-.5 1.1-1.1 1.1zm-76.8-2.2h75.6V29.1H11.1v37.5z"/></g><g id="사각형_7335_1_"><path class="st0" d="M10 23.9h77.9v39.7H10z"/><path class="st1" d="M87.9 64.7H10c-.6 0-1.1-.5-1.1-1.1V23.9c0-.6.5-1.1 1.1-1.1h77.9c.6 0 1.1.5 1.1 1.1v39.7c0 .6-.5 1.1-1.1 1.1zm-76.8-2.2h75.6V25H11.1v37.5z"/></g><g id="사각형_7337_1_"><path class="st0" d="M10 19.7h77.9v39.7H10z"/><path class="st1" d="M87.9 60.5H10c-.6 0-1.1-.5-1.1-1.1V19.7c0-.6.5-1.1 1.1-1.1h77.9c.6 0 1.1.5 1.1 1.1v39.7c0 .6-.5 1.1-1.1 1.1zm-76.8-2.2h75.6V20.8H11.1v37.5z"/></g><g id="사각형_7339_1_"><path class="st0" d="M10 15.6h77.9v39.7H10z"/><path class="st1" d="M87.9 56.4H10c-.6 0-1.1-.5-1.1-1.1V15.6c0-.6.5-1.1 1.1-1.1h77.9c.6 0 1.1.5 1.1 1.1v39.7c0 .6-.5 1.1-1.1 1.1zm-76.8-2.2h75.6V16.7H11.1v37.5z"/></g></g><path d="M81.8 21.3H16.2c-.6 0-1.1-.5-1.1-1.1 0-.6.5-1.1 1.1-1.1h65.6c.6 0 1.1.5 1.1 1.1 0 .6-.5 1.1-1.1 1.1z" id="패스_48031_1_"/><path d="M81.8 53.3H16.2c-.6 0-1.1-.5-1.1-1.1 0-.6.5-1.1 1.1-1.1h65.6c.6 0 1.1.5 1.1 1.1 0 .6-.5 1.1-1.1 1.1z" id="패스_48032_1_"/><g id="사각형_7340_1_"><path class="st0" d="M42.1 15.6h13.8v58.5H42.1z"/><path class="st1" d="M55.9 75H42.1c-.5 0-.9-.4-.9-.9V15.6c0-.5.4-.9.9-.9h13.8c.5 0 .9.4.9.9v58.5c0 .5-.4.9-.9.9zM43 73.2h12V16.5H43v56.7z"/></g><circle cx="28.2" cy="35.9" r="4.3" id="타원_24_1_"/><circle cx="70.1" cy="35.9" r="4.3" id="타원_25_1_"/></g><path d="M42.5 12h12v12h-12z" id="사각형_7342"/><path class="st1" d="M48.9 19.1c-.3 0-.6-.1-.8-.3l-8.3-8.3c-.4-.4-.4-1.2 0-1.6.4-.4 1.2-.4 1.6 0l7.5 7.5L62.6 2.7c.4-.4 1.2-.4 1.6 0 .4.4.4 1.2 0 1.6L49.7 18.8c-.2.2-.5.3-.8.3z" id="패스_48038"/></g></svg>