<svg version="1.1" id="레이어_1" xmlns="http://www.w3.org/2000/svg" x="0" y="0" viewBox="0 0 96 100" xml:space="preserve"><style>.st0{fill:#80d38e}.st1{fill:#fff}.st2{opacity:.2;enable-background:new}</style><g id="그룹_19245" transform="translate(.029 .496)"><g id="사각형_7331_2_"><path class="st0" d="M9 54.8h77.9v39.7H9z"/><path class="st1" d="M86.9 95.6H9c-.6 0-1.1-.5-1.1-1.1V54.8c0-.6.5-1.1 1.1-1.1h77.9c.6 0 1.1.5 1.1 1.1v39.7c0 .6-.5 1.1-1.1 1.1zm-76.8-2.2h75.6V55.9H10.1v37.5z"/></g><g id="사각형_7333_2_"><path class="st0" d="M9 50.6h77.9v39.7H9z"/><path class="st1" d="M86.9 91.4H9c-.6 0-1.1-.5-1.1-1.1V50.6c0-.6.5-1.1 1.1-1.1h77.9c.6 0 1.1.5 1.1 1.1v39.7c0 .6-.5 1.1-1.1 1.1zm-76.8-2.2h75.6V51.7H10.1v37.5z"/></g><g id="사각형_7335_2_"><path class="st0" d="M9 46.5h77.9v39.7H9z"/><path class="st1" d="M86.9 87.3H9c-.6 0-1.1-.5-1.1-1.1V46.5c0-.6.5-1.1 1.1-1.1h77.9c.6 0 1.1.5 1.1 1.1v39.7c0 .6-.5 1.1-1.1 1.1zm-76.8-2.2h75.6V47.6H10.1v37.5z"/></g><g id="사각형_7337_2_"><path class="st0" d="M9 42.3h77.9V82H9z"/><path class="st1" d="M86.9 83.1H9c-.6 0-1.1-.5-1.1-1.1V42.3c0-.6.5-1.1 1.1-1.1h77.9c.6 0 1.1.5 1.1 1.1V82c0 .6-.5 1.1-1.1 1.1zm-76.8-2.2h75.6V43.4H10.1v37.5z"/></g><g id="사각형_7339_2_"><path class="st0" d="M9 38.2h77.9v39.7H9z"/><path class="st1" d="M86.9 79H9c-.6 0-1.1-.5-1.1-1.1V38.2c0-.6.5-1.1 1.1-1.1h77.9c.6 0 1.1.5 1.1 1.1v39.7c0 .6-.5 1.1-1.1 1.1zm-76.8-2.2h75.6V39.3H10.1v37.5z"/></g><g id="패스_48031_2_" class="st2"><path class="st1" d="M80.8 42.7H15.2c-.6 0-1.1-.5-1.1-1.1 0-.6.5-1.1 1.1-1.1h65.6c.6 0 1.1.5 1.1 1.1 0 .6-.5 1.1-1.1 1.1z"/></g><g id="패스_48032_2_" class="st2"><path class="st1" d="M80.8 74.7H15.2c-.6 0-1.1-.5-1.1-1.1 0-.6.5-1.1 1.1-1.1h65.6c.6 0 1.1.5 1.1 1.1 0 .6-.5 1.1-1.1 1.1z"/></g><g id="사각형_7340_2_"><path class="st0" d="M41.1 37h13.8v58.5H41.1z"/><path class="st1" d="M54.9 96.6H41.1c-.6 0-1.1-.5-1.1-1.1V37c0-.6.5-1.1 1.1-1.1h13.8c.6 0 1.1.5 1.1 1.1v58.5c0 .6-.5 1.1-1.1 1.1zm-12.7-2.2h11.5V38.1H42.2v56.3z"/></g><g id="타원_24_2_" class="st2"><circle class="st1" cx="27.2" cy="57.3" r="4.3"/></g><g id="타원_25_2_" class="st2"><circle class="st1" cx="69.1" cy="57.3" r="4.3"/></g><g id="사각형_7342_1_" class="st2"><path class="st1" d="M41.5 12h12v12h-12z"/></g><path class="st1" d="M47.9 19.1c-.3 0-.6-.1-.8-.3l-8.3-8.3c-.4-.4-.4-1.2 0-1.6.4-.4 1.2-.4 1.6 0l7.5 7.5L61.6 2.7c.4-.4 1.2-.4 1.6 0 .4.4.4 1.2 0 1.6L48.7 18.8c-.2.2-.5.3-.8.3z" id="패스_48038_1_"/></g></svg>