<svg version="1.1" id="레이어_1" xmlns="http://www.w3.org/2000/svg" x="0" y="0" viewBox="0 0 96 100" xml:space="preserve"><style>.st0{fill:#fff}.st1{fill:#3e3e3e}</style><g id="그룹_19231" transform="translate(1.129)"><g id="그룹_19229" transform="translate(0 21.399)"><g id="그룹_19228" transform="translate(0 1.132)"><g id="사각형_7331"><path class="st0" d="M7.9 26.7h77.9v39.7H7.9z"/><path class="st1" d="M85.8 67.5H7.9c-.6 0-1.1-.5-1.1-1.1V26.7c0-.6.5-1.1 1.1-1.1h77.9c.6 0 1.1.5 1.1 1.1v39.7c0 .6-.5 1.1-1.1 1.1zM9 65.3h75.6V27.8H9v37.5z"/></g><g id="사각형_7333"><path class="st0" d="M7.9 22.5h77.9v39.7H7.9z"/><path class="st1" d="M85.8 63.3H7.9c-.6 0-1.1-.5-1.1-1.1V22.5c0-.6.5-1.1 1.1-1.1h77.9c.6 0 1.1.5 1.1 1.1v39.7c0 .6-.5 1.1-1.1 1.1zM9 61.1h75.6V23.6H9v37.5z"/></g><g id="사각형_7335"><path class="st0" d="M7.9 18.3h77.9V58H7.9z"/><path class="st1" d="M85.8 59.1H7.9c-.6 0-1.1-.5-1.1-1.1V18.3c0-.6.5-1.1 1.1-1.1h77.9c.6 0 1.1.5 1.1 1.1V58c0 .6-.5 1.1-1.1 1.1zM9 56.9h75.6V19.4H9v37.5z"/></g><g id="사각형_7337"><path class="st0" d="M7.9 14.2h77.9v39.7H7.9z"/><path class="st1" d="M85.8 55H7.9c-.6 0-1.1-.5-1.1-1.1V14.2c0-.6.5-1.1 1.1-1.1h77.9c.6 0 1.1.5 1.1 1.1v39.7c0 .6-.5 1.1-1.1 1.1zM9 52.8h75.6V15.3H9v37.5z"/></g><g id="사각형_7339"><path class="st0" d="M7.9 10h77.9v39.7H7.9z"/><path class="st1" d="M85.8 50.8H7.9c-.6 0-1.1-.5-1.1-1.1V10c0-.6.5-1.1 1.1-1.1h77.9c.6 0 1.1.5 1.1 1.1v39.7c0 .6-.5 1.1-1.1 1.1zM9 48.6h75.6V11.1H9v37.5z"/></g></g><path d="M79.7 15.8H14.1c-.6 0-1.1-.5-1.1-1.1 0-.6.5-1.1 1.1-1.1h65.6c.6 0 1.1.5 1.1 1.1 0 .6-.5 1.1-1.1 1.1z" id="패스_48031"/><path d="M79.7 47.8H14.1c-.6 0-1.1-.5-1.1-1.1 0-.6.5-1.1 1.1-1.1h65.6c.6 0 1.1.5 1.1 1.1 0 .6-.5 1.1-1.1 1.1z" id="패스_48032"/><g id="사각형_7340"><path class="st0" d="M40 10h13.8v58.5H40z"/><path class="st1" d="M53.8 69.4H40c-.5 0-.9-.4-.9-.9V10c0-.5.4-.9.9-.9h13.8c.5 0 .9.4.9.9v58.5c0 .5-.4.9-.9.9zm-12.9-1.8h12V10.9h-12v56.7z"/></g><circle cx="26.1" cy="30.3" r="4.3" id="타원_24"/><circle cx="68" cy="30.3" r="4.3" id="타원_25"/></g><g id="그룹_19230" transform="translate(12.758)"><circle cx="10" cy="12.1" r="2.1" id="타원_26"/><circle cx="26.2" cy="12.1" r="2.1" id="타원_27" opacity=".5"/><circle cx="41.4" cy="12.1" r="2.1" id="타원_28" opacity=".2"/><circle cx="57.5" cy="12.1" r="2.1" id="타원_29" opacity=".09"/></g></g></svg>