<svg version="1.1" id="레이어_1" xmlns="http://www.w3.org/2000/svg" x="0" y="0" viewBox="0 0 96 100" xml:space="preserve"><style>.st0{fill:#80d38e}.st1{fill:#fff}.st2{opacity:.2;enable-background:new}</style><g id="그룹_19231_1_" transform="translate(1.129)"><g id="그룹_19246"><g id="사각형_7331_2_"><path class="st0" d="M7.9 49.2h77.9v39.7H7.9z"/><path class="st1" d="M85.8 90H7.9c-.6 0-1.1-.5-1.1-1.1V49.2c0-.6.5-1.1 1.1-1.1h77.9c.6 0 1.1.5 1.1 1.1v39.7c0 .6-.5 1.1-1.1 1.1zM9 87.8h75.6V50.3H9v37.5z"/></g><g id="사각형_7333_2_"><path class="st0" d="M7.9 45h77.9v39.7H7.9z"/><path class="st1" d="M85.8 85.8H7.9c-.6 0-1.1-.5-1.1-1.1V45c0-.6.5-1.1 1.1-1.1h77.9c.6 0 1.1.5 1.1 1.1v39.7c0 .6-.5 1.1-1.1 1.1zM9 83.6h75.6V46.1H9v37.5z"/></g><g id="사각형_7335_2_"><path class="st0" d="M7.9 41h77.9v39.7H7.9z"/><path class="st1" d="M85.8 81.8H7.9c-.6 0-1.1-.5-1.1-1.1V41c0-.6.5-1.1 1.1-1.1h77.9c.6 0 1.1.5 1.1 1.1v39.7c0 .6-.5 1.1-1.1 1.1zM9 79.6h75.6V42.1H9v37.5z"/></g><g id="사각형_7337_2_"><path class="st0" d="M7.9 36.8h77.9v39.7H7.9z"/><path class="st1" d="M85.8 77.6H7.9c-.6 0-1.1-.5-1.1-1.1V36.8c0-.6.5-1.1 1.1-1.1h77.9c.6 0 1.1.5 1.1 1.1v39.7c0 .6-.5 1.1-1.1 1.1zM9 75.4h75.6V37.9H9v37.5z"/></g><g id="사각형_7339_2_"><path class="st0" d="M7.9 32.7h77.9v39.7H7.9z"/><path class="st1" d="M85.8 73.5H7.9c-.6 0-1.1-.5-1.1-1.1V32.7c0-.6.5-1.1 1.1-1.1h77.9c.6 0 1.1.5 1.1 1.1v39.7c0 .6-.5 1.1-1.1 1.1zM9 71.3h75.6V33.8H9v37.5z"/></g><g id="패스_48032_2_" class="st2"><path class="st1" d="M79.7 69.2H14.1c-.6 0-1.1-.5-1.1-1.1 0-.6.5-1.1 1.1-1.1h65.6c.6 0 1.1.5 1.1 1.1 0 .6-.5 1-1.1 1.1z"/></g><g id="패스_48032_2_2" class="st2"><path class="st1" d="M79.7 37.1H14.1c-.6 0-1.1-.5-1.1-1.1 0-.6.5-1.1 1.1-1.1h65.6c.6 0 1.1.5 1.1 1.1 0 .7-.5 1.1-1.1 1.1z"/></g><g id="사각형_7340_2_"><path class="st0" d="M40 31.5h13.8V90H40z"/><path class="st1" d="M53.8 91.1H40c-.6 0-1.1-.5-1.1-1.1V31.5c0-.6.5-1.1 1.1-1.1h13.8c.6 0 1.1.5 1.1 1.1V90c0 .6-.5 1.1-1.1 1.1zm-12.7-2.2h11.5V32.6H41.1v56.3z"/></g><g id="타원_24_2_" class="st2"><circle class="st1" cx="26.1" cy="51.8" r="4.3"/></g><g id="타원_25_2_" class="st2"><circle class="st1" cx="68" cy="51.8" r="4.3"/></g></g><g id="그룹_19230_1_" transform="translate(12.758)"><circle class="st1" cx="10" cy="12.1" r="2.1" id="타원_26_1_"/><circle class="st1" cx="26.1" cy="12.1" r="2.1" id="타원_27_1_" opacity=".5"/><g id="타원_28_1_" class="st2"><circle class="st1" cx="41.4" cy="12.1" r="2.1"/></g><circle class="st1" cx="57.5" cy="12.1" r="2.1" id="타원_29_1_" opacity=".09"/></g></g></svg>