<svg version="1.1" id="레이어_1" xmlns="http://www.w3.org/2000/svg" x="0" y="0" viewBox="0 0 24 21.7" xml:space="preserve"><style>.st1{fill:#95bc56}</style><path id="XMLID_6_" d="M11.7 15.4s.1-.1.1-.2c.1-.1 0-.2.1-.2.1.1.2 0 .2 0v-.2s.1 0 .1-.1 0-.3.1-.3 0 .2.1.2c.1.1.2-.3.2-.4 0-.1 0-.2.1-.4l.1-.1s-.1.1-.1 0v-.2c.2-.1.1.2.2.2.1-.1 0-.1 0-.2s.1-.2.2-.2c.1-.2.1-.4.2-.6.1-.2.2-.4.2-.6V12s.1 0 .1-.1v-.4c0-.5.2-1 .2-1.5 0-.2.1-.3.1-.5 0-.1.1-.2.1-.4v-.2c0-.1.1-.2 0-.3 0-.1-.1 0-.1-.1h.1v-.7l-.1-.1s.1 0 0-.2v-.3c0-.1-.1 0-.1-.1v-.2c0-.2-.1-.3-.1-.5 0-.5.1-1 .1-1.5s0-1-.2-1.5c-.1-.2-.4-.4-.6-.5-.2-.1-.3-.2-.4-.4-.1-.2-.2-.3-.4-.5H12v-.2c-.2-.1-.2 0-.4 0 0-.2-.2-.3-.4-.3h-.6c-.3.1-.5 0-.4.3v.1c0 .1-.1.2-.1.3v1.6c0 .1 0 0-.1.2-.1 0-.2.1-.2.2-.1.2 0 .5 0 .7v.9c0 .6-.1 1.1-.2 1.6-.2 1-.3 2.1-.2 3 0 .3 0 .6.1.9v.2s.1 0 .2.1h-.1v.3h.2c.1.1-.1.1-.1.1s-.3-.1-.2.2v.1h.1l-.1.1v.2c.1.1.2 0 .2 0 .3 0 0 .1.2.1.1 0 .1-.1.2 0 .2 0 .1.2 0 .2 0 0-.4-.1-.4 0v.4c.1.1.2 0 .3.1l-.1.1.1.1v.1h.1c-.1 0 0 .2 0 .3s.1 0 .2.1v.2l.1.2c.2.1 0-.2.3-.1.1.1 0 .2.1.2l.1.1s-.1.2.1.2c.2-.1 0-.7.5-.6 0 0 0-.1.1-.1l.1.1c.1.2 0 .1-.1.1h-.1v.1s.1-.1.2 0v.1c0 .1 0 .1-.1.1.1.5.1.5.1.7-.1-.1-.1 0 0 0z" fill="#f2aa4b"/><path id="XMLID_5_" class="st1" d="M16.8 15v-.9l.1.1s0 .1.2.1h.2s0 .1.1.1c0 0 .2.2.2.1.1 0 0 .2.1.2V14c.1 0 0 .2 0 .2.1 0 0-.2.1-.3h.1c.2.2.1.4.3.6.1-.1 0-.3 0-.3 0-.1-.1-.4.1-.5.1 0 0 .3.1.3s0-.3.1-.3h.1v-.1c.1 0 .1-.2.1-.2.1 0 .2.4.2.5 0 .1.1.3.1.4v.4h.1l.2.2c0 .1 0 .2.1.3v-.8c0-.2 0-.4.1-.7l.3-1.2c.1-.5.1-.9.2-1.4 0-.5.1-1.1.1-1.6V7.3c0-.5 0-1-.1-1.4-.2-.9-.1-1.8-.4-2.7 0-.1-.3-.8-.6-.6 0 0 0 .1-.1.2l-.2.1h-.1v-.1c-.1 0 0 .1 0 .2-.1 0 0-.2-.1-.2 0 0 0 .4-.1.4s.1-.2 0-.2v-.2s-.1 0-.1.1c-.2 0 0-.3-.2-.2-.2.1-.1.2-.2.3-.1-.1 0-.1-.2 0-.1 0 0 .1-.1 0v-.6l-.1-.1h-.2v.1c-.1.1-.2 0-.2 0l-.2.1-.1.1c-.1 0-.1 0-.2.1s-.1.2-.2.2c-.1.1-.1.1-.2.1-.1.1-.1 0-.1.1s-.1.4-.1.4v.1c0 .1-.1.2-.1.3v.3c0 .1-.1.3 0 .4-.1-.1-.1.2-.1.2v.4c.1 0 .1.4.1.4v1c.1.1 0 0 0 .1v6.2s-.1 0 0-.1c.1 0 0 .8 0 .8v.9s.2.6.4.5v-.1c-.1 0 .5.1.5.1z"/><path id="XMLID_4_" class="st1" d="M18.1 2.5s-.1 0 0 0c0 0-.1 0 0 0z"/><g id="XMLID_1_"><path id="XMLID_2_" d="M7.2 14.5s.1-.1.1-.2c0 0 0 .1.1 0V14s0-.3.1-.3c.2 0 0 .6.1.6.1-.1.1-.2.1-.3.1 0 0 0 .1-.1 0-.4 0-.7.1-1 0-.2.2-.2.3-.4.1-.4.2-.7.2-1.1 0-.2.1-.4 0-.6V9.6c0-.2 0-.4-.1-.6.1-.1 0-.2 0-.3v-.8c-.1-.3 0-.7 0-1.1 0-.1 0-.3-.1-.4v-.3c0-.1 0-.2-.1-.3-.1-.6.1-1.4 0-2.2v-.5C8 3 8 2.8 7.9 2.7c-.2-.2-.3 0-.5.1h-.2c-.1-.2 0-.2-.2-.2l-.2.1-.1-.1h-.4l-.2.1-.2.1c-.1 0 0 0 0-.1s.1-.2 0-.2h-.2c-.1 0-.2.1-.3.1 0 0-.1-.1-.2 0-.1 0-.2.1-.2.1-.2.2-.3.3-.3.5 0 .1 0 .2-.1.4h-.1v.6c0 .1-.1.2-.1.3v.6l-.1.1v.1l-.1.1h.1l-.1.1c0 .1.3.1.1.3-.1 0-.1-.1-.2 0V6c0 .2-.2.2 0 .2 0 0 0-.1.1 0s0 0 0 .1c-.1.1-.1 0-.2.1v.2h-.1s0 .1.1.1h-.1v.1c.1 0 .1 0 0 .1V7s.2-.1.2 0c0 0 0-.1-.1 0 0 0-.1.1 0 .2-.1.1-.1 0 0 .1l.1.1c-.2 0-.1.3-.1.3V8c0 .2.1.6.1.8 0 .5.2 1 .4 1.5.1.3.1.5.2.8 0 .1.1.3.1.4 0 .1 0 .3.1.4 0 .1.1.1.1.2v.1s-.1 0 0 .1h.1c-.1.1-.1.2 0 .3.1.2.1.4.2.6v.2l.1.1h.1c.1 0 .1.1 0 .1h-.1c0 .2 0 0 .1.1.1 0-.1.2.1.1v-.1c.1 0 .1.1.1.1v.2c0 .1 0 0 0 0h.1c.2-.1.1.3.2.3v-.4h.1v-.1s.2.4.3.4c.1.1.1 0 .1 0 .1 0 0 0 .2.1 0 0 0-.1.1-.1 0 .1.1.1.2.1.2 0 .1.2.2.2z" fill="#d6061c"/></g><path d="M23.6 16.1h-.2v-.2H23c-.1 0-.2-.1-.2-.1.1-.1.2-.1.3-.2 0 0-.1-.1-.2-.1s-.3.1-.4.1h-.2c-.2 0-.4 0-.4.1h-.4l-.1.1c-.3.1-.5.2-.8.2-.4 0-.6.2-.9.2-.3 0-.6.2-.9.2-1 .2-1.9.4-2.9.4 0-.1-.2.1-.2.1h-.6c-.3 0-.6.1-.8.1 0 0-.2-.1-.2 0h-1.4c-.1 0-.3-.1-.3 0h-.1c-.1-.1-.2-.1-.4 0h-.1c-.2 0-.3-.1-.5 0h-.4c-.1 0-.3-.1-.3 0h-1c-.1 0-.4-.2-.5 0H9c-.2 0-.4-.2-.7-.1h-.2c-.2-.1-.5 0-.8 0-.1-.2-.4-.1-.6-.2-.2 0-.4.1-.6.1-.2-.1-.4-.2-.4-.3h-.3c-.1-.1-.3-.1-.4-.1-.1 0-.1-.1-.2-.1-.3 0-.5-.1-.8-.1-.2-.1-.3-.1-.3-.2-.2 0-.4 0-.6-.1.2-.1.4-.1.5-.2-.2-.2-.5.1-.6-.1h-.2c-.2.1-.3.2-.6.3-.1 0-.2 0-.2.1 0 0 .1.1.1.2-.1 0-.1.1-.1.1h-.3c0-.1.1-.2.1-.3-.2-.1-.3 0-.5.1 0 0 .1.1.2.1-.1 0-.2.1-.2.1-.1.1-.2.1-.3.2-.2.1-.3.2-.3.3-.1 0-.2.1-.2.1v.3l-.1.1s.1.1.2.1l-.2.2s0 .1.1.1.2.1.3.2v.1h.3s0 .1.1.2c0 0-.1.1-.2.1v.1c.2 0 .4.2.6.1H2s.1 0 .2.1c.2.1.4.1.7.2H3l-.2.2c.2.1.4.2.6.2.3.1.6.1.9.2.1.1.3 0 .3.1h.3c0 .1.1.1.3.1h.1c0 .1.1.1.1.1.1 0 .2 0 .2.1.3 0 .6-.1.7.1.2 0 .4 0 .5.1 0 .1.1.1.1.2.1-.2.1-.4.3-.6h.2c0 .1.1.1.1.2.3 0 .5.2.7 0 .1.1.2.2.4.1.1 0 .2.1.3.1.2 0 .2-.1.2-.1l.2.2h1c0 .1.2.1.3 0 .3 0 .6 0 .8-.1h.1c0 .1.2.1.3.2.1 0 .1-.1.2-.2.1 0 .2 0 .3.1.1 0 .2 0 .3-.1.2 0 .3-.1.4 0 .2-.1.5 0 .6-.2h.2c.2 0 .3 0 .4-.1h.4c.4.1.7-.1 1.1 0 .3-.1.6-.1.8-.2h.4c.2 0 .3 0 .3-.1.2 0 .4-.1.6-.1.1.1.2 0 .3 0 0 0 0-.1-.1-.2.1 0 .1 0 .2-.1h.2c0-.1 0-.1.2-.2h.1c.2 0 .3-.1.4-.1h.1s.1.1.2.1c.2 0 .4-.1.5-.2 0 0 .1 0 .2.1.2 0 .2-.1.2-.2h.3c-.1-.1-.3-.1-.4 0-.2-.1-.3 0-.5 0s-.4 0-.5-.1c.1-.1.1 0 .2 0 .1-.1.2-.1.3-.2h.1c.2 0 .3-.1.3-.2.3-.1.5-.1.8-.2.1 0 .3-.1.4-.2.2-.1.3-.1.5-.2h.2l.6-.3c.1 0 .2 0 .2-.1 0 0 .1 0 .2-.1h.3s-.1-.1-.1-.2h.2c.2 0 .4 0 .5-.1.1 0 .2 0 .3-.1-.3-.5-.4-.4-.6-.4zm-5.1 1.6zm-6.5.6zm-8.7-1.6c.1 0 .2.1.3.1-.1 0-.2 0-.3-.1zm1.5 1.9h.5-.5zm-2.7-2.5c.1 0 .2.1.2.1.2 0 .2 0 .3.1H2v-.1c0-.1.1-.1.1-.1z" fill="#050101"/></svg>