<svg data-name="레이어 1" xmlns="http://www.w3.org/2000/svg" viewBox="0 0 347.39 266.98"><path d="M280.63 188.74c-6.78-2.73-3.77-10.13-9.1-13.23-7.57 4.69-16.42 9-23.48 13.74-15.74 10.54-16.24 3.1-18.71-9.46-3.68-18.69-1.92-37.43-2.44-56.12q-1.11-40.95-.76-81.94c.1-11.9.39-24.61 13.71-30.69 4.68-2.14 9.81-9 14.94 1.47 1.57 3.2 11.72 4.61 16.92 3.16 11.2-3.13 13.33 3.84 14.47 11.15 8.46 54.2 9.43 108.15-5.55 161.92z" fill="#9eb26d"/><path d="M141.64 133.39c-2-19.39-.19-38.37 3.44-57.57 3.6-19 4.06-38.71 5.21-58.15 1.07-18 6.48-22.25 22.1-12.72 17.74 10.82 33.13 22.64 31.41 48.86-2 30.85 4.32 62-3.59 93a192.36 192.36 0 01-11.1 31.68c-5.73 12.82-16.38 19.24-26.63 15.8-11.89-4-20.25-15.95-20.77-30.35-.36-10.17-.07-20.37-.07-30.55z" fill="#d5a969"/><path d="M123.07 113.49c5 21.81-1.15 42.93-9 63.89-1.56 4.19-3.93 8.71-7.85 7-11.48-5-24.75-3.56-32-20.25-19-44-19.31-87.88-8.51-133.16 2.53-10.61 7-17 19.58-16.24 33 1.88 32.68 1.49 33.67 35 .32 10.73 3.15 21.36 3.89 32.1.76 10.19.22 20.47.22 31.66z" fill="#a93931"/><path d="M310.76 207.05c-40.65 11.26-82.06 17-124.2 19.44-45.07 2.62-90.05.76-131.91-15.27-19-7.29-31.18-3.94-45.23 5.33-9.5 6.27-14.09 14-2.71 22.85 12.61 9.79 28.18 14.13 42.93 17.39 20 4.42 40.14 7.87 61.27 9 60.6 3.31 119.49.57 176.72-20.89 14.73 2.71 1.56-10.62 7.46-13 13.2-2.52 25.22-8.26 37.36-13.67l15-5.38c-11.67-10.83-23.55-12.8-36.69-5.8z"/></svg>