<svg version="1.1" id="레이어_1" xmlns="http://www.w3.org/2000/svg" x="0" y="0" viewBox="0 0 500 500" xml:space="preserve"><style>.st0{fill:#fff}</style><path class="st0" d="M36.2 184.5h-5.4V54.1c0-1.5 1.2-2.7 2.7-2.7h152.2c1.5 0 2.7 1.2 2.7 2.7v85.7H183v-83H36.2v127.7z"/><path class="st0" d="M240.7 180.7h-27.2v-5.4H238v-59.9c-.5-6.4-3.2-11.2-7.9-14.2-3.1-2-6.2-2.6-6.8-2.7h-37.9V93h38.4c.2 0 4.7.5 9.3 3.5 4.3 2.7 9.6 8.2 10.4 18.5v63c-.1 1.5-1.3 2.7-2.8 2.7zm-157 28.6c-14.6 0-26.5-11.9-26.5-26.5s11.9-26.5 26.5-26.5 26.5 11.9 26.5 26.5-11.9 26.5-26.5 26.5zm0-47.5c-11.6 0-21.1 9.4-21.1 21.1S72 204 83.7 204s21.1-9.4 21.1-21.1-9.5-21.1-21.1-21.1z"/><path class="st0" d="M189 209.3c-14.6 0-26.5-11.9-26.5-26.5s11.9-26.5 26.5-26.5 26.5 11.9 26.5 26.5-11.9 26.5-26.5 26.5zm0-47.5c-11.6 0-21.1 9.4-21.1 21.1S177.3 204 189 204s21.1-9.4 21.1-21.1-9.5-21.1-21.1-21.1z"/><path class="st0" d="M107.8 175.2h56.5v5.4h-56.5zm98.6-48.7h33.8v5.4h-33.8zm-225.1 15.4H9.2v2h-27.9zm-8.4 20.9H9.2v2h-36.3zM-55 175.4H9.1v2H-55zm739 309.1H161.1L32.8 209.8h212z"/></svg>