<svg version="1.1" id="레이어_1" xmlns="http://www.w3.org/2000/svg" x="0" y="0" viewBox="0 0 96 100" xml:space="preserve"><style>.st0{fill:#fff}.st1{fill:#3e3e3e}</style><g id="그룹_19229" transform="translate(0 21.399)"><g id="그룹_19228" transform="translate(0 1.132)"><g id="사각형_7331"><path class="st0" d="M9 16.1h77.9v39.7H9z"/><path class="st1" d="M87 56.9H9c-.6 0-1.1-.5-1.1-1.1V16.1c0-.6.5-1.1 1.1-1.1h78c.6 0 1.1.5 1.1 1.1v39.7c0 .6-.5 1.1-1.1 1.1zm-76.9-2.2h75.6V17.2H10.1v37.5z"/></g><g id="사각형_7333"><path class="st0" d="M9 11.9h77.9v39.7H9z"/><path class="st1" d="M87 52.7H9c-.6 0-1.1-.5-1.1-1.1V11.9c0-.6.5-1.1 1.1-1.1h78c.6 0 1.1.5 1.1 1.1v39.7c0 .6-.5 1.1-1.1 1.1zm-76.9-2.2h75.6V13H10.1v37.5z"/></g><g id="사각형_7335"><path class="st0" d="M9 7.7h77.9v39.7H9z"/><path class="st1" d="M87 48.5H9c-.6 0-1.1-.5-1.1-1.1V7.7c0-.6.5-1.1 1.1-1.1h78c.6 0 1.1.5 1.1 1.1v39.7c0 .6-.5 1.1-1.1 1.1zm-76.9-2.2h75.6V8.8H10.1v37.5z"/></g><g id="사각형_7337"><path class="st0" d="M9 3.6h77.9v39.7H9z"/><path class="st1" d="M87 44.4H9c-.6 0-1.1-.5-1.1-1.1V3.6c0-.6.5-1.1 1.1-1.1h78c.6 0 1.1.5 1.1 1.1v39.7c0 .6-.5 1.1-1.1 1.1zm-76.9-2.2h75.6V4.7H10.1v37.5z"/></g><g id="사각형_7339"><path class="st0" d="M9-.6h77.9v39.7H9z"/><path class="st1" d="M87 40.2H9c-.6 0-1.1-.5-1.1-1.1V-.6c0-.6.5-1.1 1.1-1.1h78c.6 0 1.1.5 1.1 1.1v39.7c0 .6-.5 1.1-1.1 1.1zM10.1 38h75.6V.5H10.1V38z"/></g></g><path d="M80.8 5.2H15.2c-.6 0-1.1-.5-1.1-1.1 0-.6.5-1.1 1.1-1.1h65.6c.6 0 1.1.5 1.1 1.1.1.6-.4 1.1-1.1 1.1z" id="패스_48031"/><path d="M80.8 37.2H15.2c-.6 0-1.1-.5-1.1-1.1 0-.6.5-1.1 1.1-1.1h65.6c.6 0 1.1.5 1.1 1.1.1.6-.4 1.1-1.1 1.1z" id="패스_48032"/><g id="사각형_7340"><path class="st0" d="M41.1-.6h13.8v58.5H41.1z"/><path class="st1" d="M54.9 58.8H41.1c-.5 0-.9-.4-.9-.9V-.6c0-.5.4-.9.9-.9h13.8c.5 0 .9.4.9.9v58.5c0 .5-.4.9-.9.9zM42 57h12V.3H42V57z"/></g><circle cx="27.2" cy="19.7" r="4.3" id="타원_24"/><circle cx="69.2" cy="19.7" r="4.3" id="타원_25"/></g></svg>