<svg xmlns="http://www.w3.org/2000/svg" viewBox="0 0 2885.4 500"><path d="M2772.3 309.4l26.7 155.7-139.8-73.5-139.8 73.5 26.7-155.7L2433 199.2l156.3-22.7 69.9-141.7 69.9 141.7 156.3 22.7V0H0v199.2l156.3-22.7 69.9-141.7 69.9 141.7 156.3 22.7-113.1 110.2L366 465.1l-139.8-73.5-139.8 73.5 26.7-155.7L0 199.3V500h2885.4V199.3l-113.1 110.1zM974.2 465.1l-139.8-73.5-139.8 73.5 26.7-155.7-113.1-110.2 156.3-22.7 69.9-141.7 69.9 141.7 156.3 22.7-113.1 110.2 26.7 155.7zm608.3 0l-139.8-73.5-139.8 73.5 26.7-155.7-113.1-110.2 156.3-22.7 69.9-141.7 69.9 141.7 156.3 22.7-113.1 110.2 26.7 155.7zm608.2 0l-139.8-73.5-139.8 73.5 26.7-155.7-113.1-110.2 156.3-22.7 69.9-141.7 69.9 141.7 156.3 22.7L2164 309.4l26.7 155.7z" fill="#fff"/></svg>