<svg version="1.1" id="레이어_1" xmlns="http://www.w3.org/2000/svg" x="0" y="0" viewBox="0 0 32 32" xml:space="preserve"><style>.st0{fill:#fff}.st1{display:none}</style><circle class="st0" cx="11.8" cy="26.4" r="2"/><circle class="st0" cx="24" cy="26.4" r="2"/><circle class="st1" cx="11.8" cy="26.4" r="2"/><circle class="st1" cx="24" cy="26.4" r="2"/><circle class="st1" cx="11.8" cy="26.4" r="2"/><circle class="st1" cx="24" cy="26.4" r="2"/><circle class="st1" cx="26.7" cy="5.3" r="4.4"/><circle class="st1" cx="12" cy="26.2" r="2.2"/><circle class="st1" cx="23.6" cy="26.2" r="2.2"/><circle class="st1" cx="12" cy="26.2" r="2.2"/><circle class="st1" cx="23.6" cy="26.2" r="2.2"/><circle class="st1" cx="12" cy="26.2" r="2.2"/><circle class="st1" cx="23.6" cy="26.2" r="2.2"/><circle class="st1" cx="26.7" cy="5.3" r="4.4"/><path class="st0" d="M29.4 4.8c-.2-.2-.4-.3-.7-.3H10.2l.6 1.8h16.8L25.2 17H11.8l-4-13c-.1-.3-.3-.5-.6-.6L3.6 2.3c-.5-.1-1 .1-1.1.6-.2.5.1 1 .5 1.1l3.2 1 4.1 12.9-1.5 1.2-.1.1c-.7.9-.8 2.1-.1 3 .5.6 1.2.9 2 .9h14.8c.5 0 .9-.4.9-.9s-.4-.9-.9-.9h-15c-.3 0-.6-.3-.6-.6 0-.1 0-.2.1-.3l2.1-1.8h13.7c.4 0 .8-.3.9-.7l2.8-12.4c.3-.2.2-.5 0-.7z"/><path class="st1" d="M25.9 13.7l-.7 3.2H11.8L7.8 4c-.1-.3-.3-.5-.6-.6L3.6 2.3c-.5-.1-1 .1-1.1.6-.2.5.1 1 .5 1.1l3.2 1 4.1 12.9-1.5 1.2-.1.1c-.7.9-.8 2.1-.1 3 .5.6 1.2.9 2 .9h14.8c.5 0 .9-.4.9-.9s-.4-.9-.9-.9h-15c-.3 0-.6-.3-.6-.6 0-.1 0-.2.1-.3l2.1-1.8h13.7c.4 0 .8-.3.9-.7l1-4.3h-1.7z"/><path class="st1" d="M23.9 1l-5.1 8.8c-.4.5-.2 1.2.3 1.6.2.1.4.2.7.2H30c.6 0 1.2-.5 1.2-1.1 0-.2-.1-.5-.2-.7L25.8 1c-.3-.5-1-.7-1.6-.4-.1.1-.2.2-.3.4zm-3.8 5.2c-.1-.3-.1-.6-.1-.9 0-.3 0-.6.1-.9h-9.8l.6 1.8h9.2z"/><path class="st1" d="M26.7 12h-.4l-1.1 4.9H11.8L7.8 4c-.1-.3-.3-.5-.6-.6L3.6 2.3c-.5-.1-1 .1-1.1.6-.2.5.1 1 .5 1.1l3.2 1 4.1 12.9-1.5 1.2-.1.1c-.7.9-.8 2.1-.1 3 .5.6 1.2.9 2 .9h14.8c.5 0 .9-.4.9-.9s-.4-.9-.9-.9h-15c-.3 0-.6-.3-.6-.6 0-.1 0-.2.1-.3l2.1-1.8h13.7c.4 0 .8-.3.9-.7l1.4-6.1c-.3.1-.8.2-1.3.2z"/><path class="st1" d="M29.4 5.7c-.2-.2-.4-.3-.7-.3H8.2l-.4-1.3c-.1-.3-.3-.5-.6-.6L3.6 2.4c-.5-.2-1 .1-1.2.6-.1.4.2.9.6 1.1l3.2 1L10.3 18l-1.4 1.2-.1.1c-.7.9-.8 2.1-.1 3 .5.6 1.2.9 2 .9h14.8c.5 0 .9-.4.9-.9s-.4-.9-.9-.9h-15c-.3 0-.6-.3-.6-.6 0-.1 0-.2.1-.3l2.1-1.8h13.7c.4 0 .8-.3.9-.7l2.8-11.6c.2-.2.1-.5-.1-.7z"/><path class="st1" d="M19.8 13.7c-1.8 0-3.3-1.4-3.3-3.2 0-.6.1-1.2.4-1.7l2-3.5H8.2l-.4-1.2c-.1-.3-.3-.5-.6-.6L3.6 2.4c-.5-.2-1 .1-1.2.6-.1.4.2.9.6 1.1l3.2 1L10.3 18l-1.4 1.2-.1.1c-.7.9-.8 2.1-.1 3 .5.6 1.2.9 2 .9h14.8c.5 0 .9-.4.9-.9s-.4-.9-.9-.9h-15c-.3 0-.6-.3-.6-.6 0-.1 0-.2.1-.3l2.1-1.8h13.7c.4 0 .8-.3.9-.7l1.1-4.3h-8z"/><path class="st1" d="M23.9 1l-5.1 8.8c-.4.5-.2 1.2.3 1.6.2.1.4.2.7.2H30c.6 0 1.2-.5 1.2-1.1 0-.2-.1-.5-.2-.7L25.8 1c-.3-.5-1-.7-1.6-.4-.1.1-.2.2-.3.4z"/><path class="st1" d="M26.7 12C23 12 20 9 20 5.3H8.2l-.4-1.2c-.1-.3-.3-.5-.6-.6L3.6 2.4c-.5-.2-1 .1-1.2.6-.1.4.2.9.6 1.1l3.2 1L10.3 18l-1.4 1.2-.1.1c-.7.9-.8 2.1-.1 3 .5.6 1.2.9 2 .9h14.8c.5 0 .9-.4.9-.9s-.4-.9-.9-.9h-15c-.3 0-.6-.3-.6-.6 0-.1 0-.2.1-.3l2.1-1.8h13.7c.4 0 .8-.3.9-.7l1.5-6.2c-.4.1-1 .2-1.5.2z"/><path class="st1" d="M18.4 6.2l1-1.8h-9.2l.6 1.8z"/></svg>