<svg viewBox="0 0 32 32" xmlns="http://www.w3.org/2000/svg"><style>.st0{display:none}.st1{fill:#fff}</style><circle class="st0" cx="11.8" cy="26.4" r="2"/><circle class="st0" cx="24" cy="26.4" r="2"/><circle class="st0" cx="11.8" cy="26.4" r="2"/><circle class="st0" cx="24" cy="26.4" r="2"/><circle class="st0" cx="26.7" cy="5.3" r="4.4"/><circle class="st0" cx="12" cy="26.2" r="2.2"/><circle class="st0" cx="23.6" cy="26.2" r="2.2"/><circle class="st0" cx="12" cy="26.2" r="2.2"/><circle class="st0" cx="23.6" cy="26.2" r="2.2"/><circle class="st0" cx="12" cy="26.2" r="2.2"/><circle class="st0" cx="23.6" cy="26.2" r="2.2"/><circle class="st0" cx="26.7" cy="5.3" r="4.4"/><circle class="st1" cx="11.8" cy="27.1" r="2"/><path class="st1" d="M11.8 29.4c-1.2 0-2.2-1-2.2-2.2s1-2.2 2.2-2.2 2.2 1 2.2 2.2-1 2.2-2.2 2.2zm0-4c-1 0-1.8.8-1.8 1.8s.8 1.8 1.8 1.8 1.8-.8 1.8-1.8-.8-1.8-1.8-1.8z"/><circle class="st1" cx="24" cy="27.1" r="2"/><path class="st1" d="M24 29.4c-1.2 0-2.2-1-2.2-2.2s1-2.2 2.2-2.2 2.2 1 2.2 2.2-1 2.2-2.2 2.2zm0-4c-1 0-1.8.8-1.8 1.8S23 29 24 29s1.8-.8 1.8-1.8-.8-1.8-1.8-1.8zM10.6 24c-.9 0-1.7-.3-2.2-1-.7-1-.7-2.3.1-3.3l.1-.1 1.4-1.1L6 5.9l-3.1-1c-.2 0-.5-.2-.6-.5s-.2-.6 0-.9c.1-.5.5-.8 1.1-.8h.3l3.6 1.1c.4.2.6.4.7.8l4 12.9h13l2.3-10.2H10.6l-.7-2.4h18.8c.4 0 .6.2.8.3.1.1.4.5.2 1l-2.9 12.5c-.1.5-.6.9-1.1.9H12.1l-2 1.7v.1c0 .2.2.3.4.3h15c.6 0 1.1.5 1.1 1.2 0 .6-.5 1.1-1.1 1.1H10.6z"/><path class="st1" d="M3.4 3h.2l3.6 1.1c.3.1.5.3.6.6l4 13h13.4L27.6 7H10.8l-.6-1.8h18.5c.3 0 .4.1.6.2.1.1.3.4.1.8l-2.8 12.4c-.1.4-.5.7-.9.7H12l-2.1 1.8c-.1.1-.1.2-.1.3 0 .3.3.6.6.6h15c.5 0 .9.4.9.9s-.4.9-.9.9H10.6c-.8 0-1.5-.3-2-.9-.7-.9-.6-2.1.1-3l.1-.1 1.5-1.2L6.2 5.7 3 4.7c-.4-.1-.7-.6-.5-1.1.1-.4.4-.6.9-.6m0-.5c-.7 0-1.2.4-1.3 1-.2.3-.2.7 0 1s.5.6.8.7l2.9.9 3.9 12.3-1.2 1-.1.1c-.9 1.1-.9 2.6-.1 3.6.6.7 1.4 1.1 2.4 1.1h14.8c.8 0 1.4-.6 1.4-1.4s-.6-1.4-1.4-1.4h-15l-.1-.1 1.9-1.6h13.5c.6 0 1.2-.5 1.4-1.1L30 6.2c.2-.5 0-1-.2-1.2-.3-.1-.6-.3-1.1-.3H9.5l.2.7.7 2.1H27l-2.2 9.7H12.2L8.3 4.6c-.2-.5-.5-.8-.9-1L3.7 2.5h-.3z"/><path class="st0" d="M25.9 13.7l-.7 3.2H11.8L7.8 4c-.1-.3-.3-.5-.6-.6L3.6 2.3c-.5-.1-1 .1-1.1.6-.2.5.1 1 .5 1.1l3.2 1 4.1 12.9-1.5 1.2-.1.1c-.7.9-.8 2.1-.1 3 .5.6 1.2.9 2 .9h14.8c.5 0 .9-.4.9-.9s-.4-.9-.9-.9h-15c-.3 0-.6-.3-.6-.6 0-.1 0-.2.1-.3l2.1-1.8h13.7c.4 0 .8-.3.9-.7l1-4.3-1.7.1z"/><path class="st0" d="M23.9 1l-5.1 8.8c-.4.5-.2 1.2.3 1.6.2.1.4.2.7.2H30c.6 0 1.2-.5 1.2-1.1 0-.2-.1-.5-.2-.7L25.8 1c-.3-.5-1-.7-1.6-.4-.1.1-.2.2-.3.4zm-3.8 5.2c-.1-.3-.1-.6-.1-.9s0-.6.1-.9h-9.8l.6 1.8h9.2z"/><path class="st0" d="M26.7 12h-.4l-1.1 4.9H11.8L7.8 4c-.1-.3-.3-.5-.6-.6L3.6 2.3c-.5-.1-1 .1-1.1.6-.2.5.1 1 .5 1.1l3.2 1 4.1 12.9-1.5 1.2-.1.1c-.7.9-.8 2.1-.1 3 .5.6 1.2.9 2 .9h14.8c.5 0 .9-.4.9-.9s-.4-.9-.9-.9h-15c-.3 0-.6-.3-.6-.6 0-.1 0-.2.1-.3l2.1-1.8h13.7c.4 0 .8-.3.9-.7l1.4-6.1c-.3.1-.8.2-1.3.2z"/><path class="st0" d="M29.4 5.7c-.2-.2-.4-.3-.7-.3H8.2l-.4-1.3c-.1-.3-.3-.5-.6-.6L3.6 2.4c-.5-.2-1 .1-1.2.6-.1.4.2.9.6 1.1l3.2 1L10.3 18l-1.4 1.2-.1.1c-.7.9-.8 2.1-.1 3 .5.6 1.2.9 2 .9h14.8c.5 0 .9-.4.9-.9s-.4-.9-.9-.9h-15c-.3 0-.6-.3-.6-.6 0-.1 0-.2.1-.3l2.1-1.8h13.7c.4 0 .8-.3.9-.7l2.8-11.6c.2-.2.1-.5-.1-.7z"/><path class="st0" d="M19.8 13.7c-1.8 0-3.3-1.4-3.3-3.2 0-.6.1-1.2.4-1.7l2-3.5H8.2l-.4-1.2c-.1-.3-.3-.5-.6-.6L3.6 2.4c-.5-.2-1 .1-1.2.6-.1.4.2.9.6 1.1l3.2 1L10.3 18l-1.4 1.2-.1.1c-.7.9-.8 2.1-.1 3 .5.6 1.2.9 2 .9h14.8c.5 0 .9-.4.9-.9s-.4-.9-.9-.9h-15c-.3 0-.6-.3-.6-.6 0-.1 0-.2.1-.3l2.1-1.8h13.7c.4 0 .8-.3.9-.7l1.1-4.3h-8z"/><path class="st0" d="M23.9 1l-5.1 8.8c-.4.5-.2 1.2.3 1.6.2.1.4.2.7.2H30c.6 0 1.2-.5 1.2-1.1 0-.2-.1-.5-.2-.7L25.8 1c-.3-.5-1-.7-1.6-.4-.1.1-.2.2-.3.4z"/><path class="st0" d="M26.7 12C23 12 20 9 20 5.3H8.2l-.4-1.2c-.1-.3-.3-.5-.6-.6L3.6 2.4c-.5-.2-1 .1-1.2.6-.1.4.2.9.6 1.1l3.2 1L10.3 18l-1.4 1.2-.1.1c-.7.9-.8 2.1-.1 3 .5.6 1.2.9 2 .9h14.8c.5 0 .9-.4.9-.9s-.4-.9-.9-.9h-15c-.3 0-.6-.3-.6-.6 0-.1 0-.2.1-.3l2.1-1.8h13.7c.4 0 .8-.3.9-.7l1.5-6.2c-.4.1-1 .2-1.5.2z"/><path class="st0" d="M18.4 6.2l1-1.8h-9.2l.6 1.8z"/></svg>