<svg xmlns="http://www.w3.org/2000/svg" viewBox="0 0 500 500"><circle cx="250" cy="250" r="250" fill="#3e3e3e"/><path d="M250 239c42.5 0 77-34.5 77-77s-34.5-77-77-77-77 34.5-77 77 34.5 77 77 77zm0-132c30.4 0 55 24.6 55 55s-24.6 55-55 55-55-24.6-55-55 24.6-55 55-55zm137.2 213.1c-71.6-75.7-191.1-79-266.8-7.4-2.5 2.4-5 4.9-7.4 7.4-3.8 4.1-5.9 9.5-5.9 15.1V393c0 12.2 9.8 22 22 22h242c12.2 0 22-9.8 22-22v-57.9c-.1-5.5-2.1-10.9-5.9-15zM371 393H129v-58c63.5-66.8 169.1-69.6 235.9-6.1 2.1 2 4.1 4 6.1 6.1v58z" fill="#fff"/></svg>