<svg version="1.1" id="레이어_1" xmlns="http://www.w3.org/2000/svg" x="0" y="0" viewBox="0 0 1000 1000" xml:space="preserve"><style>.st0{fill:#fff}</style><path class="st0" d="M851.7 533.7c0-.8-4-86.7-49.8-171-26.6-49-61.9-88-105-115.9-54-35-120.7-52.7-198.2-52.7-77.6 0-144.3 17.5-198.3 51.9-43.1 27.5-78.4 65.9-105 114.2-45.7 83-49.7 167.6-49.7 168.4l-23-.9c.1-3.6 4.1-90.1 52.2-177.8 28.4-51.9 66.3-93.2 112.8-122.9 57.9-37 128.9-55.8 211.1-55.8 82.3 0 153.3 19.1 211.2 56.7 46.4 30.1 84.3 72.1 112.7 124.7 48 89 52 176.7 52.1 180.4l-23.1.7z"/><path class="st0" d="M61.6 525.2h870.7v23H61.6zm721.2 398.1c-7.6 0-15.1-1.9-22-5.5l-62.6-33.2c-11.1-5.9-19.3-15.8-22.9-27.8-3.7-12-2.5-24.8 3.4-35.9l71.4-134.5c5.9-11.1 15.8-19.3 27.8-22.9 12-3.7 24.8-2.5 35.9 3.4l62.6 33.2c22.9 12.2 31.7 40.7 19.5 63.7l-71.4 134.5c-5.9 11.1-15.8 19.3-27.8 22.9-4.6 1.4-9.3 2.1-13.9 2.1zm8.9-238.9c-2.4 0-4.8.4-7.1 1.1-6.2 1.9-11.2 6.1-14.2 11.7L699 831.7c-3 5.7-3.6 12.2-1.8 18.3s6.1 11.2 11.7 14.2l62.6 33.2c5.7 3 12.2 3.6 18.3 1.8 6.2-1.9 11.2-6.1 14.2-11.7L875.5 753c6.2-11.7 1.8-26.3-10-32.6L803 687.2c-3.5-1.9-7.4-2.8-11.3-2.8z"/><path class="st0" d="M694.9 826.3c-64.1-6.2-126.1-24.8-184.2-55.3-46.4-24.3-90.3-56.2-130.7-94.7-68.7-65.6-102.8-127.1-104.2-129.7l-9.3-16.9 157.5-1.2 3.5 4.7c11.8 15.9 37.8 37.6 66.2 55.1 30.4 18.8 57.6 29.4 72.9 28.2 11.7-.9 24.8-14.7 36.9-39 10.3-20.6 16.1-41.4 16.2-41.6l2.3-8.3 101.1-1.3-2.9 14c-7.6 36.3-14.6 79.8-13.9 92.6 14 9.3 46.8 37.3 61.5 50l-15 17.4c-25.4-21.9-54.9-46.2-60.5-49.1-9.5-4.3-9.5-16.2-8.6-29 .6-9 2.2-21.2 4.6-36.2 2.2-13.4 4.7-26.8 6.5-36.4l-55.5.7c-2.8 8.6-7.9 22.7-15 37.1-16.4 32.9-35.2 50.4-55.9 51.9-1.3.1-2.6.1-3.9.1-27.3 0-63.2-19.6-82.8-31.7-28.6-17.7-54.3-38.8-68.9-56.3l-106.4.8c14.6 22.5 44.8 64.6 90.1 107.7 38.8 36.9 81 67.4 125.4 90.7 55.3 28.9 114.3 46.6 175.3 52.5l-2.3 23.2zm6.8-195.9zm-90.8-438.2l-23-.5c0-.3.2-33.9-21.7-56.1-13.3-13.5-32.4-20.3-56.8-20.3-33.7 0-58.3 12.5-73.1 37.1-11.1 18.5-12.5 37.4-12.5 37.5l-23-1.4c.1-1 1.7-24.4 15.7-47.9 13.2-22 40-48.3 92.8-48.3 30.9 0 55.5 9.2 73.3 27.3 28.9 29.3 28.4 70.9 28.3 72.6zM222.5 529.6l-23-.9c.1-2 2.3-50.3 25.7-105.8 13.8-32.8 32.3-61.3 54.8-84.8 28.3-29.5 63-50.9 103.1-63.7l7 21.9c-36.5 11.6-67.9 31.1-93.5 57.7-20.6 21.4-37.5 47.6-50.2 77.8-21.8 51.8-23.9 97.4-23.9 97.8z"/></svg>