<svg xmlns="http://www.w3.org/2000/svg" viewBox="0 0 1000 1000"><path d="M446 420.5c-2.5 0-5-.8-7.1-2.5-5-3.9-5.9-11.2-1.9-16.1 2.1-2.6 8.5-10.6 15.2-19.1 6.4-8.1 13.1-16.4 15.1-19 9.9-12.6 21.2-26.9 37.5-35.6 3.7-1.9 7.3-3.4 10.8-4.9 4.6-1.9 8.9-3.7 12.3-6 4.2-2.9 6.4-7.4 5.6-9.5-.8-2-4.4-4-9.1-5-8.6-1.8-18.1-1.1-28.1-.4-1.4.1-2.9.2-4.3.3-3.1.2-8.4.6-13.6-2-5.5-2.7-8.5-7.3-10.4-10.4-.3-.4-.5-.8-.8-1.3-3.2-4.8-9.1-8.4-15.4-9.3-3.1-.5-8.9-.7-13.4 3.1-.8.6-1.2 1.1-1.4 1.5.2.6.5 1.6.7 2.3l8.3 24.7c1.3 3.7 3.1 9.3 1.7 15.7-1 4.4-3.3 7.8-4.8 10-5.8 8.4-11.8 16.4-17.5 24.1-5.7 7.5-11.5 15.3-17 23.3-3.6 5.2-10.8 6.6-16 3-5.2-3.6-6.6-10.8-3-16 5.8-8.4 11.8-16.4 17.5-24.1 5.7-7.5 11.5-15.3 17-23.3.4-.6 1-1.5 1.3-2-.1-.9-.7-2.6-1-3.4l-8.3-24.7c-.9-2.8-2.2-6.6-2-11.2.4-6.5 3.9-12.8 9.9-17.7 8.5-7 19.7-9.8 31.4-8.1 12.7 1.9 24.4 9.1 31.1 19.3.4.5.7 1.1 1.1 1.7.4.6.8 1.3 1.2 1.9.6 0 1.4-.1 1.8-.1l4.2-.3c11.2-.8 22.7-1.7 34.6.8 12.9 2.8 22.1 9.6 25.8 19.3 3.9 10.2 1.2 26-14 36.6-5.5 3.8-11.2 6.2-16.7 8.4-3.2 1.3-6.1 2.5-8.8 3.9-12 6.3-21.3 18.1-30.2 29.4-2.1 2.6-8.5 10.6-15.2 19.1-6.4 8.1-13.1 16.4-15.1 19-2.2 3.1-5.6 4.6-9 4.6z"/><path d="M230.9 557c-5.2 0-9.9-3.5-11.2-8.8-.3-1.3-.5-2.3-.7-3-5.8-16-4.1-34.7 4.9-57 15.6-38.4 44.4-72.5 81.1-96.2 27.3-17.6 54.1-26.2 79.7-25.4 32.3.9 61.3 18.2 74 44 .7 1.3 1 2.7 1.1 4.1 1.1 3.4 4.8 12.2 9.6 16.7.5.5 1.3 1.2 2.3 2.1 2.7 2.4 6.7 6 11.4 10.6 4.5 4.5 4.5 11.8 0 16.3s-11.8 4.5-16.3 0c-4.2-4.2-7.8-7.4-10.4-9.7-1.2-1.1-2.2-1.9-2.8-2.6-5.9-5.6-10.1-13.1-12.6-18.4-2.2-4.7-3.3-8.1-3.9-10.6-9.3-17.1-30.4-28.8-53.2-29.5-20.8-.6-43.2 6.7-66.5 21.8-32.8 21.1-58.4 51.5-72.2 85.5-7 17.1-8.4 30.6-4.4 41.1.3.7.5 1.4.6 2.2 0 0 .2.9.6 2.6 1.5 6.2-2.3 12.4-8.5 13.9-.8.2-1.7.3-2.6.3z"/><path d="M874.7 845.1H131.9c-6.4 0-11.5-5.1-11.5-11.5V631.1c0-6.4 5.1-11.5 11.5-11.5s11.5 5.1 11.5 11.5v191h719.8V559H131.9c-6.4 0-11.5-5.1-11.5-11.5s5.1-11.5 11.5-11.5h742.8c6.4 0 11.5 5.1 11.5 11.5v286.1c0 6.4-5.2 11.5-11.5 11.5z"/><path d="M980.3 640.5H877c-6.4 0-11.5-5.1-11.5-11.5s5.1-11.5 11.5-11.5h69.6l-79.3-61.3c-5-3.9-6-11.1-2.1-16.1 3.9-5 11.1-6 16.1-2.1l106 81.9c3.9 3 5.4 8.2 3.9 12.8-1.6 4.6-6 7.8-10.9 7.8zm-202.5-82.3h-.4c-6.3-.2-11.3-5.6-11.1-11.9.2-6.6-.3-13.4-.8-18.6-2.7-27-8.3-49.7-17.2-69.5-2.6-5.8 0-12.6 5.8-15.2 5.8-2.6 12.6 0 15.2 5.8 9.9 22.1 16.1 47.2 19.1 76.6.6 5.9 1.2 13.7.9 21.7-.3 6.2-5.4 11.1-11.5 11.1zm-323.3-1.6c-5.1 0-9.8-3.5-11.1-8.7-17.3-68.4 35-115 37.2-117 .1 0 .1-.1.2-.1 15.9-13.4 33-25.5 50.9-36 28.3-16.6 54.6-26.9 80.3-31.4 31.7-5.5 62-2 87.6 10.2 7.4 3.5 14.6 7.9 21.3 12.9 5.1 3.8 6.1 11 2.3 16.1-3.8 5.1-11 6.1-16.1 2.3-5.6-4.2-11.4-7.7-17.4-10.6-21-10-47.2-13-73.8-8.3-23 4-46.7 13.3-72.6 28.5-16.7 9.8-32.8 21.2-47.6 33.7-.8.7-11.6 10.7-20.6 26.9-12 21.8-15.2 44.4-9.4 67 1.6 6.2-2.2 12.4-8.3 14-1 .4-2 .5-2.9.5z"/><path d="M717.1 500.2c-2.4 0-4.9-.8-6.9-2.3-5.1-3.8-6.1-11-2.2-16.1 25.7-34 56.7-63.2 92.2-86.8 2.6-1.7 7-4.7 12.7-5.4 6.2-.8 11.4 1.4 15.2 2.9l.2.1c4.7 1.9 20.5 7.7 26.9 1.1 1.6-1.6 2.4-4 2.2-7-.2-4.9-2.9-10.4-6.7-13.7-7.9-6.9-19.4-9.3-33.6-11.7-3.5-.6-6.5-2.8-8.2-5.9-1.7-3.1-1.8-6.8-.4-10.1 3.4-7.8.9-18-5.5-22.2-2.9-1.9-7.2-2.5-11.1-1.4-3.4.9-6.1 2.9-7.3 5.4-1.3 2.7-1.8 6.5-2.3 10.6-.7 5.6-1.5 12-4.6 18.2-3.6 7.2-9.4 12.2-14 16.2l-76.8 66.3c-4.8 4.2-12.1 3.6-16.2-1.2-4.2-4.8-3.6-12.1 1.2-16.2l76.8-66.3c3.4-2.9 6.9-6 8.5-9.1 1.3-2.7 1.8-6.6 2.3-10.7.7-5.5 1.4-11.7 4.4-17.8 4.1-8.5 12.1-14.9 21.9-17.6 10.3-2.8 21.5-1.2 29.9 4.4 11.9 7.9 18.2 22.5 17.2 36.9 11.2 2.4 23.1 6.3 32.9 14.7 8.7 7.5 14.1 18.8 14.6 30.1.4 9.3-2.7 17.8-8.8 24-11.4 11.7-29.9 13.2-52.1 4.1l-.2-.1c-1.2-.5-2.9-1.2-3.7-1.3-.7.3-2.1 1.2-2.7 1.6-33.3 22.2-62.4 49.6-86.6 81.5-2.3 3.3-5.8 4.8-9.2 4.8z"/><path d="M714.6 543.9h-.3c-6.3-.2-11.4-5.4-11.2-11.8.9-34.9-11.6-70.1-34.3-96.7-4.1-4.8-3.6-12.1 1.3-16.2 4.8-4.1 12.1-3.6 16.2 1.3 26.4 30.8 40.9 71.7 39.8 112.2-.1 6.3-5.3 11.2-11.5 11.2z"/><path d="M874.7 845.1H314.9c-6.4 0-11.5-5.1-11.5-11.5V547.5c0-6.4 5.1-11.5 11.5-11.5h559.8c6.4 0 11.5 5.1 11.5 11.5v286.1c0 6.4-5.2 11.5-11.5 11.5zm-548.3-23h536.8V559H326.4v263.1z"/><path d="M208.8 641.2H26.2c-4.9 0-9.3-3.1-10.9-7.8-1.6-4.7 0-9.8 3.9-12.8l106-81.9c2-1.6 4.5-2.4 7-2.4h182.6c4.9 0 9.3 3.1 10.9 7.8 1.6 4.7 0 9.8-3.9 12.8l-106 81.9c-2 1.6-4.5 2.4-7 2.4zm-148.9-23h145l76.2-58.9h-145l-76.2 58.9zm305.6-394c-14.5-6.9-23.3-21.5-22.3-37.3.8-12 6.4-22.6 11.5-32l.7-1.2c4.3-8.1 8.2-16 7.9-22.9-.3-8-6.2-17.4-18.1-28.7L361 85.4c10.4 10 24.4 25.4 25.2 44.4.5 12.7-5 24.1-10.6 34.7l-.7 1.2c-4.3 8-8.3 15.6-8.8 22.6-.3 5 1.9 11.7 9.2 15.1l-9.8 20.8zm159.5 1.1c-14.5-6.9-23.3-21.5-22.3-37.3.8-12 6.4-22.6 11.5-32l.7-1.2c4.3-8.1 8.2-16 7.9-22.9-.3-8-6.2-17.4-18.1-28.7l15.9-16.6C531 96.6 545 112 545.8 131c.5 12.7-5 24.1-10.6 34.7l-.7 1.2c-4.3 8-8.3 15.6-8.8 22.6-.3 5 1.9 11.7 9.2 15.1l-9.9 20.7zm163.6 1.2c-14.5-6.9-23.3-21.5-22.3-37.3.8-12 6.4-22.6 11.5-32l.7-1.2c4.3-8.1 8.2-16 7.9-22.9-.3-8-6.2-17.4-18.1-28.7l15.9-16.6c10.4 10 24.4 25.4 25.2 44.4.5 12.7-5 24.1-10.6 34.7l-.8 1.1c-4.3 8-8.3 15.6-8.8 22.6-.3 5 1.9 11.7 9.2 15.1l-9.8 20.8z"/></svg>