<svg version="1.1" id="올바치킨_홈아이콘" xmlns="http://www.w3.org/2000/svg" x="0" y="0" viewBox="0 0 1000 1000" xml:space="preserve"><style>.st0{fill:#fff}.st1{fill:#252c2d}.st2{fill:#d5d5db}</style><path class="st0" d="M398.9 378.1c11.3-16.4 23.3-31 34.5-47.4 1.3-1.9 2.6-3.8 3.1-6 .7-3.2-.3-6.5-1.4-9.6-2.8-8.2-5.6-16.5-8.3-24.7-.7-2.2-1.5-4.5-1.4-6.9.2-3.8 2.8-7.1 5.7-9.5 13.5-11.1 36-5.8 45.7 8.7 1.9 2.9 3.6 6.2 6.7 7.7 2.4 1.2 5.1 1 7.8.8 11.9-.8 23.9-2.2 35.6.3 7.2 1.5 14.8 5.2 17.4 12.1 3.2 8.4-2.4 17.9-9.8 23-7.4 5.1-16.4 7.4-24.3 11.6-13.9 7.4-24.1 20.1-33.9 32.5-4.1 5.2-26.2 32.9-30.3 38.1"/><path class="st1" d="M446 420.5c-2.5 0-5-.8-7.1-2.5-5-3.9-5.9-11.2-1.9-16.1 2.1-2.6 8.5-10.6 15.2-19.1 6.4-8.1 13.1-16.4 15.1-19 9.9-12.6 21.2-26.9 37.5-35.6 3.7-1.9 7.3-3.4 10.8-4.9 4.6-1.9 8.9-3.7 12.3-6 4.2-2.9 6.4-7.4 5.6-9.5-.8-2-4.4-4-9.1-5-8.6-1.8-18.1-1.1-28.1-.4-1.4.1-2.9.2-4.3.3-3.1.2-8.4.6-13.6-2-5.5-2.7-8.5-7.3-10.4-10.4-.3-.4-.5-.8-.8-1.3-3.2-4.8-9.1-8.4-15.4-9.3-3.1-.5-8.9-.7-13.4 3.1-.8.6-1.2 1.1-1.4 1.5.2.6.5 1.6.7 2.3l8.3 24.7c1.3 3.7 3.1 9.3 1.7 15.7-1 4.4-3.3 7.8-4.8 10-5.8 8.4-11.8 16.4-17.5 24.1-5.7 7.5-11.5 15.3-17 23.3-3.6 5.2-10.8 6.6-16 3-5.2-3.6-6.6-10.8-3-16 5.8-8.4 11.8-16.4 17.5-24.1 5.7-7.5 11.5-15.3 17-23.3.4-.6 1-1.5 1.3-2-.1-.9-.7-2.6-1-3.4l-8.3-24.7c-.9-2.8-2.2-6.6-2-11.2.4-6.5 3.9-12.8 9.9-17.7 8.5-7 19.7-9.8 31.4-8.1 12.7 1.9 24.4 9.1 31.1 19.3.4.5.7 1.1 1.1 1.7.4.6.8 1.3 1.2 1.9.6 0 1.4-.1 1.8-.1l4.2-.3c11.2-.8 22.7-1.7 34.6.8 12.9 2.8 22.1 9.6 25.8 19.3 3.9 10.2 1.2 26-14 36.6-5.5 3.8-11.2 6.2-16.7 8.4-3.2 1.3-6.1 2.5-8.8 3.9-12 6.3-21.3 18.1-30.2 29.4-2.1 2.6-8.5 10.6-15.2 19.1-6.4 8.1-13.1 16.4-15.1 19-2.2 3.1-5.6 4.6-9 4.6z"/><path class="st0" d="M230.2 542.1c-6.1-15.9-1.9-33.8 4.5-49.5 15.1-37.3 42.8-69 76.7-90.9 21.9-14.1 47.1-24.4 73.1-23.6 26 .8 52.6 14.2 64 37.6 0 0 4.6 16.4 13.2 24.2 8.6 7.7 66.4 53.3 47 113.8-19.4 60.5-120.3 152.9-207.3 91.4-60.9-43.2-71.2-103-71.2-103z"/><path class="st1" d="M363.2 676.7c-24.2 0-47.4-7.5-68.5-22.4-60.1-42.5-73.8-100.1-75.6-109.2-5.8-16-4.1-34.7 4.9-57 15.6-38.4 44.4-72.5 81.1-96.2 27.3-17.6 54.1-26.2 79.7-25.4 32.3.9 61.3 18.2 74 44 .3.6.6 1.3.8 2 1.5 5.1 5.4 14.8 9.8 18.7.4.4 1 .9 1.7 1.5 7.1 6.1 23.7 20.5 36.5 41.6 16.8 27.4 20.8 55.3 12 82.8-6.7 20.9-21.9 44.5-41.7 64.8-15.4 15.8-40.7 36.9-73.8 47.9-13.8 4.6-27.6 6.9-40.9 6.9zM241.5 540.1c.2.9 10.6 56 66.4 95.5 26.8 19 56.7 23.2 88.8 12.4 48.1-16.1 89.8-63.3 100.9-97.9 10.6-33.1-3.4-66.8-41.7-100-.8-.7-1.5-1.3-2-1.8-9.6-8.7-14.8-23.9-16.2-28.4-9.1-17.5-30.5-29.6-53.6-30.3-20.8-.6-43.2 6.7-66.5 21.8-32.8 21.1-58.4 51.5-72.2 85.5-7 17.1-8.4 30.6-4.4 41.1.2.7.4 1.4.5 2.1z"/><path class="st2" d="M131.9 547.5h742.8v286.1H131.9z"/><path class="st1" d="M874.7 845.1H131.9c-6.4 0-11.5-5.1-11.5-11.5V547.5c0-6.4 5.1-11.5 11.5-11.5h742.8c6.4 0 11.5 5.1 11.5 11.5v286.1c0 6.4-5.2 11.5-11.5 11.5zm-731.3-23h719.8V559H143.4v263.1z"/><path class="st2" d="M797.7 629h182.6l-106-81.9H691.7z"/><path class="st1" d="M980.3 640.5H797.7c-2.5 0-5-.8-7-2.4l-106-81.9c-3.9-3-5.4-8.2-3.9-12.8 1.6-4.7 6-7.8 10.9-7.8h182.6c2.5 0 5 .8 7 2.4l106 81.9c3.9 3 5.4 8.2 3.9 12.8-1.6 4.6-6 7.8-10.9 7.8zm-178.7-23h145l-76.2-58.9h-145l76.2 58.9z"/><path class="st0" d="M714 395.8c-6.1-4.5-12.5-8.5-19.4-11.8-24.8-11.8-53.6-14-80.7-9.3s-52.7 16-76.5 29.9a354.09 354.09 0 00-49.3 34.9s-60.4 52.7-26.3 125.9S540.3 677 590.4 683.9c16.6 2.3 34.4 4.7 49.2-3 6.7-3.5 12.2-8.8 18.1-13.4 20.3-15.7 45.7-23.6 66.4-38.8 10.9-8 20.3-17.9 29-28.2 9.5-11.3 18.6-23.7 22.3-38.1 3.1-11.6 2.5-23.9 1.3-35.9-2.5-25.1-7.9-50.1-18.2-73.1"/><path class="st1" d="M615 697.6c-8.9 0-17.8-1.2-26.2-2.4-27.7-3.8-53.4-16.3-76.4-37.3-23.1-21-43.6-50.5-61-87.7-15.4-33.1-15.3-67.8.5-100.2 11.7-24.2 28-38.6 28.7-39.2.1 0 .1-.1.2-.1 15.9-13.4 33-25.5 50.9-36 28.3-16.6 54.6-26.9 80.3-31.4 31.7-5.5 62-2 87.6 10.2 7.4 3.5 14.6 7.9 21.3 12.9 5.1 3.8 6.1 11 2.3 16.1-3.8 5.1-11 6.1-16.1 2.3-5.6-4.2-11.4-7.7-17.4-10.6-21-10-47.2-13-73.8-8.3-23 4-46.7 13.3-72.6 28.5-16.7 9.8-32.8 21.2-47.6 33.7-.9.8-14.1 13-23.5 32.6-12.4 26.1-12.4 53 0 79.7 16.1 34.5 34.8 61.5 55.6 80.4 19.6 17.7 41.2 28.4 64.1 31.5 15.1 2.1 30.7 4.2 42.3-1.8 3.8-2 7.5-5 11.3-8.2 1.6-1.3 3.3-2.7 5.1-4.1 11.4-8.8 24-15.2 36.1-21.4 11-5.6 21.3-10.8 30.5-17.6 8.7-6.4 17-14.5 27-26.4 8-9.6 16.7-21 20-33.6 2.7-10.1 2.1-21.3 1-31.8-2.7-27-8.3-49.7-17.2-69.5-2.6-5.8 0-12.6 5.8-15.2 5.8-2.6 12.6 0 15.2 5.8 9.9 22.1 16.1 47.2 19.1 76.6 1.3 12.7 2 26.3-1.6 40-4.5 17-15 31-24.7 42.5-11.2 13.3-20.8 22.6-31 30.1-10.7 7.9-22.4 13.8-33.7 19.6-11.7 6-22.8 11.6-32.5 19.1-1.5 1.2-3 2.4-4.6 3.7-4.6 3.8-9.4 7.7-15.3 10.8-9.4 5.2-19.6 6.7-29.7 6.7z"/><path class="st0" d="M679.2 429.9l76.8-66.3c4.3-3.7 8.7-7.6 11.3-12.7 4.4-8.8 2.5-19.8 6.8-28.7 6-12.3 23.8-16.1 35.1-8.6 11.4 7.5 15.2 23.9 9.7 36.4 13.9 2.4 28.6 5.1 39.2 14.3 10.7 9.2 15 27.3 5.1 37.4-9.8 10-26.5 6.8-39.5 1.5-3.1-1.3-6.3-2.6-9.7-2.2-2.8.3-5.3 1.9-7.7 3.5-34.2 22.8-64.6 51.4-89.4 84.2"/><path class="st1" d="M717.1 500.2c-2.4 0-4.9-.8-6.9-2.3-5.1-3.8-6.1-11-2.2-16.1 25.7-34 56.7-63.2 92.2-86.8 2.6-1.7 7-4.7 12.7-5.4 6.2-.8 11.4 1.4 15.2 2.9l.2.1c4.7 1.9 20.5 7.7 26.9 1.1 1.6-1.6 2.4-4 2.2-7-.2-4.9-2.9-10.4-6.7-13.7-7.9-6.9-19.4-9.3-33.6-11.7-3.5-.6-6.5-2.8-8.2-5.9-1.7-3.1-1.8-6.8-.4-10.1 3.4-7.8.9-18-5.5-22.2-2.9-1.9-7.2-2.5-11.1-1.4-3.4.9-6.1 2.9-7.3 5.4-1.3 2.7-1.8 6.5-2.3 10.6-.7 5.6-1.5 12-4.6 18.2-3.6 7.2-9.4 12.2-14 16.2l-76.8 66.3c-4.8 4.2-12.1 3.6-16.2-1.2-4.2-4.8-3.6-12.1 1.2-16.2l76.8-66.3c3.4-2.9 6.9-6 8.5-9.1 1.3-2.7 1.8-6.6 2.3-10.7.7-5.5 1.4-11.7 4.4-17.8 4.1-8.5 12.1-14.9 21.9-17.6 10.3-2.8 21.5-1.2 29.9 4.4 11.9 7.9 18.2 22.5 17.2 36.9 11.2 2.4 23.1 6.3 32.9 14.7 8.7 7.5 14.1 18.8 14.6 30.1.4 9.3-2.7 17.8-8.8 24-11.4 11.7-29.9 13.2-52.1 4.1l-.2-.1c-1.2-.5-2.9-1.2-3.7-1.3-.7.3-2.1 1.2-2.7 1.6-33.3 22.2-62.4 49.6-86.6 81.5-2.3 3.3-5.8 4.8-9.2 4.8z"/><path class="st0" d="M677.6 428c24.6 28.7 38 66.7 37 104.5"/><path class="st1" d="M714.6 543.9h-.3c-6.3-.2-11.4-5.4-11.2-11.8.9-34.9-11.6-70.1-34.3-96.7-4.1-4.8-3.6-12.1 1.3-16.2 4.8-4.1 12.1-3.6 16.2 1.3 26.4 30.8 40.9 71.7 39.8 112.2-.1 6.3-5.3 11.2-11.5 11.2z"/><path class="st0" d="M314.9 547.5h559.8v286.1H314.9z"/><path class="st1" d="M874.7 845.1H314.9c-6.4 0-11.5-5.1-11.5-11.5V547.5c0-6.4 5.1-11.5 11.5-11.5h559.8c6.4 0 11.5 5.1 11.5 11.5v286.1c0 6.4-5.2 11.5-11.5 11.5zm-548.3-23h536.8V559H326.4v263.1z"/><path class="st0" d="M208.8 629.7H26.2l106-81.9h182.6z"/><path class="st1" d="M208.8 641.2H26.2c-4.9 0-9.3-3.1-10.9-7.8-1.6-4.7 0-9.8 3.9-12.8l106-81.9c2-1.6 4.5-2.4 7-2.4h182.6c4.9 0 9.3 3.1 10.9 7.8 1.6 4.7 0 9.8-3.9 12.8l-106 81.9c-2 1.6-4.5 2.4-7 2.4zm-148.9-23h145l76.2-58.9h-145l-76.2 58.9zm305.6-394c-14.5-6.9-23.3-21.5-22.3-37.3.8-12 6.4-22.6 11.5-32l.7-1.2c4.3-8.1 8.2-16 7.9-22.9-.3-8-6.2-17.4-18.1-28.7L361 85.4c10.4 10 24.4 25.4 25.2 44.4.5 12.7-5 24.1-10.6 34.7l-.7 1.2c-4.3 8-8.3 15.6-8.8 22.6-.3 5 1.9 11.7 9.2 15.1l-9.8 20.8zm159.5 1.1c-14.5-6.9-23.3-21.5-22.3-37.3.8-12 6.4-22.6 11.5-32l.7-1.2c4.3-8.1 8.2-16 7.9-22.9-.3-8-6.2-17.4-18.1-28.7l15.9-16.6C531 96.6 545 112 545.8 131c.5 12.7-5 24.1-10.6 34.7l-.7 1.2c-4.3 8-8.3 15.6-8.8 22.6-.3 5 1.9 11.7 9.2 15.1l-9.9 20.7zm163.6 1.2c-14.5-6.9-23.3-21.5-22.3-37.3.8-12 6.4-22.6 11.5-32l.7-1.2c4.3-8.1 8.2-16 7.9-22.9-.3-8-6.2-17.4-18.1-28.7l15.9-16.6c10.4 10 24.4 25.4 25.2 44.4.5 12.7-5 24.1-10.6 34.7l-.8 1.1c-4.3 8-8.3 15.6-8.8 22.6-.3 5 1.9 11.7 9.2 15.1l-9.8 20.8z"/></svg>