<svg xmlns="http://www.w3.org/2000/svg" viewBox="0 0 1000 1000"><path d="M74.5 729h-23V178c0-6.4 5.1-11.5 11.5-11.5h643c6.4 0 11.5 5.1 11.5 11.5v362h-23V189.5h-620V729z"/><path d="M938.5 713h-115v-23H927V437c-2.3-27.1-13.5-47.3-33.5-60.1-13.3-8.5-26.2-10.8-28.8-11.2H704.5v-23h161c.4 0 .8 0 1.2.1.8.1 19.7 2.3 39.2 14.8 18.2 11.6 40.5 34.6 44 78.1v265.9c.1 6.3-5 11.4-11.4 11.4zM275 834c-61.8 0-112-50.2-112-112s50.2-112 112-112 112 50.2 112 112-50.2 112-112 112zm0-201c-49.1 0-89 39.9-89 89s39.9 89 89 89 89-39.9 89-89-39.9-89-89-89z"/><path d="M720 834c-61.8 0-112-50.2-112-112s50.2-112 112-112 112 50.2 112 112-50.2 112-112 112zm0-201c-49.1 0-89 39.9-89 89s39.9 89 89 89 89-39.9 89-89-39.9-89-89-89z"/><path d="M376.8 689.7h238.7v23H376.8zM793.5 484h143v23h-143z"/></svg>