<svg xmlns="http://www.w3.org/2000/svg" viewBox="0 0 1000 1000"><path d="M337.2 437H112.7c-6.4 0-11.5-5.1-11.5-11.5V201c0-6.4 5.1-11.5 11.5-11.5h224.5c6.4 0 11.5 5.1 11.5 11.5v224.5c0 6.3-5.1 11.5-11.5 11.5zm-213-23h201.5V212.5H124.2V414zm758.1 23H697.5c-6.4 0-11.5-5.1-11.5-11.5V201c0-6.4 5.1-11.5 11.5-11.5h184.8c6.4 0 11.5 5.1 11.5 11.5v224.5c0 6.3-5.2 11.5-11.5 11.5zM709 414h161.8V212.5H709V414zm-57.5 23h-272c-6.4 0-11.5-5.1-11.5-11.5V201c0-6.4 5.1-11.5 11.5-11.5h272c6.4 0 11.5 5.1 11.5 11.5v224.5c0 6.3-5.1 11.5-11.5 11.5zM391 414h249V212.5H391V414zm82.9 332.1H112.7c-6.4 0-11.5-5.1-11.5-11.5V469c0-6.4 5.1-11.5 11.5-11.5h361.2c6.4 0 11.5 5.1 11.5 11.5v265.6c0 6.3-5.1 11.5-11.5 11.5zm-349.7-23h338.2V480.5H124.2v242.6zm758.1 23H520.5c-6.4 0-11.5-5.1-11.5-11.5V469c0-6.4 5.1-11.5 11.5-11.5h361.8c6.4 0 11.5 5.1 11.5 11.5v265.6c0 6.3-5.2 11.5-11.5 11.5zm-350.3-23h338.8V480.5H532v242.6z" fill="#fff"/></svg>