<svg xmlns="http://www.w3.org/2000/svg" viewBox="0 0 1000 1000"><path d="M22 702.5h956v23H22z"/><path d="M837.1 844.7H154.6L94.4 720.1l20.7-10 54 111.6h653.6l53.9-111.6 20.8 10z"/><path d="M364.9 715.2v-.2l-22.6-4.4c.4-1.8 4.1-18.3 26.4-41.6 28.5-29.7 73.8-57 134.6-81.2 30.3-12.1 57.9-17.5 82.3-16.1 22.1 1.2 41.6 8 57.9 20.1 37.6 28 51.1 80.5 47.8 117.4l-22.9-2c2.3-25.7-6.1-72.7-38.7-97-27.9-20.8-67.6-21.1-117.9-1.1-38.5 15.3-91.3 40.5-124.3 73.5-19.3 19.4-22.6 32.4-22.6 32.6z"/><path d="M244 720.3l-21.7-7.7c.7-2 18.4-50.6 63.5-91 26.7-23.9 57.4-39.9 91.3-47.5 42-9.5 88.9-6.1 139.2 10.2l-7.1 21.9c-46.4-14.9-89.1-18.2-127.1-9.6-30.1 6.8-57.3 21-81.1 42.2-40.6 36.4-56.8 81.1-57 81.5zm510.9-7.5c-5.1-24.7-14.7-40.5-28.7-46.9-21.6-10-48.4 4.5-48.6 4.6l-11.2-20.1c1.5-.8 37-20.3 69.3-5.5 21.1 9.7 35.1 30.9 41.7 63.3l-22.5 4.6zm-93.7-72.9h-.7l1-23h-.2c.8 0 21.4-.1 34.2-27.4 18.4-39.3 57.8-49.3 93.9-53.9l2.9 22.8c-53.1 6.8-67.9 23.7-76 40.9-18.2 39-49.9 40.6-55.1 40.6zm-314-152.2c-1.4-.7-33.2-17.8-33.2-70.2 0-26.1 7.2-38 13.6-48.4 5.6-9.2 10.4-17.2 10.4-37.6 0-37.4-20.6-45.9-21.4-46.2l.2.1 7.5-21.7c1.5.5 36.8 13.3 36.8 67.9 0 26.8-7.3 38.9-13.8 49.5-5.5 9-10.2 16.8-10.2 36.5 0 16 3.5 29.2 10.5 39.4 5.1 7.5 10.4 10.4 10.4 10.5l-.2-.1-10.6 20.3zm171.5 0c-1.4-.7-33.2-17.8-33.2-70.2 0-26.1 7.2-38 13.6-48.4 5.6-9.2 10.4-17.2 10.4-37.6 0-37.4-20.6-45.9-21.4-46.2l.2.1 7.5-21.7c1.5.5 36.8 13.3 36.8 67.9 0 26.8-7.3 38.9-13.8 49.5-5.5 9-10.2 16.8-10.2 36.5 0 16 3.5 29.2 10.5 39.4 5.1 7.5 10.4 10.4 10.4 10.5l-.2-.1-10.6 20.3zm171.5 0c-1.4-.7-33.2-17.8-33.2-70.2 0-26.1 7.2-38 13.6-48.4 5.6-9.2 10.4-17.2 10.4-37.6 0-37.4-20.6-45.9-21.4-46.2l.2.1 7.5-21.7c1.5.5 36.8 13.3 36.8 67.9 0 26.8-7.3 38.9-13.8 49.5-5.5 9-10.2 16.8-10.2 36.5 0 16 3.5 29.2 10.5 39.4 5.1 7.5 10.4 10.4 10.4 10.5l-.2-.1-10.6 20.3z"/></svg>