<svg xmlns="http://www.w3.org/2000/svg" width="1920" height="1080"><defs><clipPath id="a"><path d="M0 0h1920v1080H0z"/></clipPath></defs><g data-name="Popup on Main PC 1 background" clip-path="url(#a)"><path fill="#fff" d="M0 0h1920v1080H0z"/><g transform="translate(1834.68 24.425)" fill="#fff"><circle data-name="타원 3" cx="2.25" cy="2.25" r="2.25" transform="translate(11.08 27.5)"/><circle data-name="타원 4" cx="2.25" cy="2.25" r="2.25" transform="translate(24.75 27.5)"/><path data-name="패스 32" d="M33.08 5.37a1 1 0 00-.77-.37H11.49l.65 2H31l-2.67 12h-15L8.76 4.53a1 1 0 00-.66-.65L4 2.62a1 1 0 10-.59 1.92L7 5.64l4.59 14.5-1.64 1.34-.13.13A2.66 2.66 0 009.74 25 2.75 2.75 0 0012 26h16.69a1 1 0 000-2H11.84a.67.67 0 01-.56-1l2.41-2h15.44a1 1 0 001-.78l3.17-14a1 1 0 00-.22-.85z"/></g><g data-name="그룹 4592" fill="none" stroke="#707070" stroke-width=".4"><path data-name="패스 46126" d="M-25.776 218.073s93.52 208.37 233.965 226.068 335.93 20.346 418.664 124.564 91.8 343.066-113.441 281.592-299.873 246.332-539.188 147.917"/><path data-name="패스 46127" d="M-42.776 244.266s93.52 194.2 233.965 210.694 335.93 18.963 418.664 116.093 104.279 318.14-100.96 260.848-312.354 231.172-551.669 139.451"/><path data-name="패스 46128" d="M-36.188 220.505s41.3 95.463 112.863 162.938c32.279 30.435 69.364 58.187 114.267 63.407 143.916 16.732 338.6 22.015 423.285 121.441S721.69 898.46 511.599 839.812c-139.711-39-229.806 84.313-350.245 139.923-60.325 27.854-130.484 31.454-212.552 0" stroke-dasharray="3"/></g><g data-name="그룹 4591" fill="none" stroke="#707070" stroke-width=".4"><path data-name="패스 46129" d="M1942.3 1113.112c-289.174-108.307-46.909-336.877-65.23-547.029a185.259 185.259 0 00-30.572-87.378c-16.61-25.153.121-273.762 290.411-384.38"/><path data-name="패스 46130" d="M1562.976-16.975s-126.191 157.51-94.763 254.724 371.533 125.182 389.854 335.333-223.944 438.723 65.23 547.029"/><path data-name="패스 46131" d="M1570.87-20.264s-124.289 157.45-92.862 254.664S1849.679 355.912 1868 566.064c10.919 125.25-72.524 266.333-79.051 375.229-4.432 73.949 29.52 135.063 146.347 178.819" stroke-dasharray="3"/><path data-name="패스 46132" d="M2129.359 75.886c-294.486 113.969-301.677 375.325-301.677 375.325s-36.27-42.534-119.721-85.583-194.081-78.861-221.444-128.916 16.452-163.1 84.268-243.8"/><path data-name="패스 46133" d="M2133.341 83.784c-321.471 134.754-298.792 389.26-298.792 389.26" stroke-dasharray="3"/></g><path data-name="선 8" fill="none" stroke="#707070" stroke-width=".4" d="M361.5 270.5l8 11"/><path data-name="선 9" fill="none" stroke="#707070" stroke-width=".4" d="M369.5 270.5l10 12"/><path data-name="선 10" fill="none" stroke="#707070" stroke-width=".4" d="M381.5 276.5l8 10"/><path data-name="선 11" fill="none" stroke="#707070" stroke-width=".4" d="M392.5 278.5l6 8"/><path data-name="선 12" fill="none" stroke="#707070" stroke-width=".4" d="M401.5 278.5l7 10"/><path data-name="선 13" fill="none" stroke="#707070" stroke-width=".4" d="M602.5 221.5l-15 10"/><path data-name="선 14" fill="none" stroke="#707070" stroke-width=".4" d="M620.5 221.5l-18 10"/><path data-name="선 15" fill="none" stroke="#707070" stroke-width=".4" d="M635.5 221.5l-15 10"/><path data-name="선 16" fill="none" stroke="#707070" stroke-width=".4" d="M650.5 221.5l-15 10"/><path data-name="선 17" fill="none" stroke="#707070" stroke-width=".4" d="M664.5 221.5l-14 10"/><g data-name="그룹 4593" fill="none" stroke="#707070" stroke-width=".4"><path data-name="선 18" d="M657.5 543.5l-11 8"/><path data-name="선 19" d="M668.5 543.5l-11 8"/><path data-name="선 20" d="M684.5 543.5l-11 8"/><path data-name="선 21" d="M694.5 547.5l-10 6"/><path data-name="선 22" d="M707.5 547.5l-10 9"/></g><g data-name="그룹 4596" fill="none" stroke="#707070" stroke-width=".4"><path data-name="선 18" d="M1348.5 777.5l-11 8"/><path data-name="선 19" d="M1359.5 777.5l-11 8"/><path data-name="선 20" d="M1375.5 777.5l-11 8"/><path data-name="선 21" d="M1385.5 781.5l-10 6"/><path data-name="선 22" d="M1398.5 781.5l-10 9"/></g><path data-name="패스 46134" d="M1584.853 807.975s-.719-13.615 18.729-13.845 14.132 12.7 23.6 12.955 17.295-3.747 31.362-1.7 15.625 5.938 26.47 6.029 23.414 5.475 23.414 5.475" fill="none" stroke="#707070" stroke-width=".4"/><path data-name="패스 46135" d="M1404.949 738.348s.286-5.41-7.442-5.5-5.615 5.048-9.376 5.147-6.872-1.489-12.461-.674-6.208 2.36-10.517 2.4a28.867 28.867 0 00-9.3 2.175" fill="none" stroke="#707070" stroke-width=".4"/><path data-name="패스 46136" d="M1809.8 1042.69a44.854 44.854 0 0127.085-8.157c16.282.42 22.905 4.31 37.758 4.6s12.075-12.268 32.148-12.932 19.632 5.7 31.733 8.334 8.959-7.6 22.8 0 17.5 13.132 17.5 13.132" fill="none" stroke="#707070" stroke-width=".4"/><path data-name="패스 46137" d="M1853.229 983.181a22.4 22.4 0 00-13.529-4.075c-8.133.21-11.441 2.153-18.861 2.3s-6.031-6.128-16.058-6.46-9.806 2.849-15.851 4.163-4.475-3.8-11.389 0-8.742 6.56-8.742 6.56" fill="none" stroke="#707070" stroke-width=".4"/><path data-name="패스 46138" d="M1539.142 944.007a14.951 14.951 0 00-9.029-2.719c-5.427.14-7.635 1.437-12.586 1.533s-4.025-4.089-10.716-4.311-6.544 1.9-10.578 2.778-2.986-2.535-7.6 0-5.834 4.378-5.834 4.378" fill="none" stroke="#707070" stroke-width=".4"/><path data-name="패스 46140" d="M1699.455-11.943s-90.577 36.384-90.188 87.174 32.539 97.569 82.344 100.089 36.214 72.514 86.062 69.313 58.1-110.224 115.014-141.5 132.786-63.935 121.615-115.08" fill="none" stroke="#707070" stroke-width=".4"/><path data-name="패스 46141" d="M-66.423 544.31s62.562-60.429 150.5-44.577 95.574 116.75 233.272 166.173 86.156 124.583-10.891 175.231S160.639 965.188 47.815 956.146-98.644 879.5-98.644 879.5" fill="none" stroke="#707070" stroke-width=".4" stroke-dasharray="8"/><path data-name="패스 46142" d="M347.674 937.2c31.325-26.023 32.686-57.567 111.243-59.035s116.014 40.342 111.125 65.854-26.316 82.126-85.727 84.171-167.966-64.97-136.641-90.99z" fill="none" stroke="#707070" stroke-width=".3"/><path data-name="패스 46143" d="M644.518 670.496v-27.3l9.83-2.627" fill="none" stroke="#707070" stroke-width=".5"/><path data-name="패스 46144" d="M414.348 463.496v-27.3l-9.83-2.627" fill="none" stroke="#707070" stroke-width=".5"/><path data-name="패스 46145" d="M248 956.496v-27.3l-9.83-2.627" fill="none" stroke="#707070" stroke-width=".5"/><path data-name="패스 46146" d="M1494 229.496v-27.3l-9.83-2.627" fill="none" stroke="#707070" stroke-width=".5"/><path data-name="패스 46147" d="M1764.17 441.496v-27.3l9.83-2.625" fill="none" stroke="#707070" stroke-width=".5"/></g></svg>