<svg version="1.1" id="레이어_1" xmlns="http://www.w3.org/2000/svg" x="0" y="0" viewBox="0 0 548 1156" xml:space="preserve"><style>.st0{fill:#707070}.st1{fill:#fff}</style><g id="도로" transform="translate(-56.155 -22.6)"><g id="그룹_5188" transform="translate(56.155 22.6)"><g id="그룹_5172" transform="translate(19.082 2.216)"><path id="패스_47341" class="st0" d="M388.1 1144l-.7-1.2c52.8-31.3 91.6-84.2 103.6-141.5 4.7-22.6 12.8-79.3-15.2-119.1-16-22.7-41.3-36.6-75.1-41.3-52.3-7.3-117.2-1.4-174.4 3.8-58.6 5.3-109.3 9.9-137.6.7-19.4-6.3-35.3-21-45.7-42.2-21.3-43.4-18.5-109.8 7.4-181.9 14.7-41 49.7-74.3 106.7-102 49.3-23.9 106.9-39.7 157.6-53.6 26.4-7.3 51.4-14.1 71.9-21.2 42.5-14.8 64.1-29.6 65.6-45.4 2-20.1-28.4-41-58.3-58.8-36.6-21.7-97-30.4-155.5-38.9-49.2-7.2-95.6-13.8-119.5-27.9-9.4-5.5-13.7-13-12.5-21.6 2.4-16.8 25.1-33.3 56.3-41.1 63.7-15.8 119.1-36.3 164.8-60.6 36.5-19.5 66.9-41.6 90.2-65.7 39.7-41 45.5-73.7 45.5-74.1l1.4.2c-.1.3-5.9 33.6-45.9 74.8-23.5 24.2-53.9 46.4-90.5 66-45.8 24.4-101.3 44.8-165.2 60.6-30.2 7.5-52.9 23.9-55.3 39.9-1.1 8 2.9 14.9 11.8 20.1 23.6 13.9 69.9 20.5 119 27.7 58.6 8.5 119.2 17.2 156 39.1 43.1 25.5 60.7 43.5 59 60.1s-22.9 31.4-66.6 46.6c-20.5 7.2-45.5 14-71.9 21.3-50.8 13.9-108.4 29.7-157.4 53.5-56.6 27.5-91.3 60.5-106 101.2-26 72-28.8 137.9-7.6 180.9 10.3 21 25.8 35.3 44.9 41.5 28 9.1 78.5 4.5 137-.7 57.3-5.1 122.3-11.1 174.8-3.7 34.3 4.7 59.9 18.8 76.1 41.9 28.3 40.3 20.2 97.4 15.4 120.2-12.1 57.6-51.1 110.9-104.1 142.4z"/></g><g id="그룹_5173"><path id="패스_47342" class="st0" d="M321.6 1134.9l-.7-1.2c32.7-19.7 63-43.4 89.9-70.5 20.7-21.1 46.7-52.3 52.5-81.2 4.4-22.3 6-53.8-10.9-77.7-12.1-17.1-32.1-27.8-59.5-31.7-46.8-6.7-94.5-1.1-140.6 4.3-56.3 6.6-109.5 12.9-154.2-4.3-28.1-10.8-51.4-43.3-62.5-87-12.2-48.5-8.4-105.2 10.8-159.4C81.8 525.8 221.3 487.8 323.2 460c18-4.9 35.1-9.6 50.1-14.1 48.5-14.9 73.1-30.7 74.9-48.4 1.7-15.8-15-33.2-50.9-53.1-38.1-21.1-97.6-28.4-150.2-34.8-44.3-5.4-86.2-10.6-110.3-23.1-14.3-7.4-22.1-19.6-20.6-32.7 1.9-18.6 21.7-34.9 52.6-43.3 70.2-19.1 129.5-41.6 176.5-66.8 37.5-20 67.2-41.9 88.2-64.9 35.7-39 33.9-67.9 33.8-68.2l1.4-.1c.8 10.2-5.4 37.8-34.2 69.3-21.2 23.1-50.9 45-88.5 65.2-47 25.2-106.5 47.6-176.8 66.9-30.4 8.3-49.7 24-51.6 42-1.3 12.5 6.1 24.2 19.9 31.3 23.9 12.3 65.6 17.4 109.9 22.9 52.7 6.4 112.4 13.8 150.7 35.1 36.5 20.1 53.3 38 51.6 54.5-1.9 18.3-26.8 34.5-75.9 49.6-15 4.6-32 9.3-50.1 14.1C222.2 488.8 83 526.7 48 626.5c-19.2 54.2-23.1 110.6-10.9 158.7 10.9 43.3 33.9 75.4 61.5 86 44.4 17 97.4 10.9 153.6 4.2 46.2-5.4 94-11 141-4.3 27.7 3.9 48 14.8 60.4 32.2 17.2 24.3 15.5 56.2 11.1 78.8-5.7 29.2-31.9 60.7-52.9 82-26.9 27.3-57.3 51.1-90.2 70.8z"/></g><g id="그룹_5177" transform="translate(9.715 .504)"><g id="그룹_5174" transform="translate(436.122)"><path id="패스_47343" class="st0" d="M30.1 13.2l-1.4-.2c.1-.8.2-1.6.2-2.4l1.4-.1c0 .2-.1 1.2-.2 2.7z"/></g><g id="그룹_5175" transform="translate(0 7.353)"><path id="패스_47344" class="st0" d="M359 1134.3l-.8-1.2c1.4-.9 2.8-1.8 4.2-2.8l.8 1.2c-1.3 1-2.7 1.9-4.2 2.8zm8.4-5.7l-.8-1.1c1.3-1 2.7-1.9 4-2.9l.8 1.1c-1.3 1-2.7 2-4 2.9zm8.1-6l-.9-1.1c1.3-1 2.6-2 3.9-3.1l.9 1.1c-1.3 1-2.6 2-3.9 3.1zm7.8-6.4l-.9-1.1c1.3-1.1 2.5-2.1 3.8-3.2l.9 1.1c-1.2 1.1-2.5 2.2-3.8 3.2zm7.7-6.6l-.9-1c1.2-1.1 2.5-2.2 3.7-3.4l1 1c-1.3 1.1-2.6 2.3-3.8 3.4zm7.3-6.9l-1-1c1.2-1.2 2.4-2.3 3.6-3.5l1 1c-1.2 1.2-2.4 2.4-3.6 3.5zm7.3-7.1l-1-1c1.2-1.2 2.3-2.4 3.5-3.6l1 1c-1.2 1.2-2.4 2.4-3.5 3.6zm6.9-7.3l-1-1c1.1-1.2 2.2-2.5 3.4-3.7l1 .9c-1.2 1.3-2.3 2.6-3.4 3.8zm6.8-7.6l-1.1-.9c1.1-1.3 2.2-2.5 3.3-3.8l1.1.9c-1.1 1.3-2.2 2.6-3.3 3.8zm6.4-7.6l-1.1-.9c1.1-1.3 2.1-2.6 3.1-3.9l1.1.9c-.9 1.3-2 2.6-3.1 3.9zm6.4-7.9l-1.1-.9c1-1.3 2-2.6 3-4l1.1.8c-1 1.4-2 2.8-3 4.1zm6-8l-1.1-.8c1-1.3 2-2.7 2.9-4l1.1.8c-.9 1.2-1.9 2.6-2.9 4zm5.9-8.3l-1.2-.8c.9-1.4 1.9-2.8 2.8-4.1l1.2.8c-.9 1.3-1.8 2.7-2.8 4.1zm5.6-8.4l-1.2-.8 2.7-4.2 1.2.7c-.9 1.4-1.8 2.9-2.7 4.3zm5.3-8.6l-1.2-.7c.9-1.4 1.7-2.9 2.5-4.3l1.2.7c-.8 1.5-1.6 2.9-2.5 4.3zm5.1-8.7l-1.2-.7c.8-1.5 1.6-2.9 2.4-4.4l1.2.7c-.8 1.4-1.6 2.9-2.4 4.4zm4.7-8.9l-1.3-.6c.8-1.5 1.5-3 2.2-4.5l1.3.6c-.7 1.4-1.5 2.9-2.2 4.5zm4.3-9.2l-1.3-.6c.7-1.5 1.3-3.1 2-4.6l1.3.5c-.7 1.6-1.4 3.2-2 4.7zm3.9-9.4l-1.3-.5c.6-1.6 1.2-3.1 1.7-4.7l1.3.5c-.5 1.6-1.1 3.1-1.7 4.7zm3.3-9.5l-1.3-.4c.5-1.6 1-3.2 1.4-4.8l1.4.4-1.5 4.8zm2.6-9.8l-1.4-.3c.1-.6.3-1.2.4-1.9l.6-3 1.4.2-.6 3c-.2.6-.3 1.3-.4 2zm1.7-10l-1.4-.2c.2-1.6.4-3.3.5-4.9l1.4.1c-.1 1.7-.3 3.3-.5 5zm.9-10.1l-1.4-.1c.1-1.7.2-3.3.2-5h1.4c-.1 1.7-.1 3.4-.2 5.1zm-1.2-10c0-1.7-.1-3.3-.2-5l1.4-.1c.1 1.7.1 3.3.2 5l-1.4.1zm-.6-10.1c-.1-1.7-.3-3.3-.5-4.9l1.4-.2c.2 1.6.4 3.3.5 5l-1.4.1zm-1.2-10c-.3-1.6-.6-3.3-.9-4.9l1.4-.3c.3 1.6.6 3.3.9 5l-1.4.2zm-2-9.7c-.4-1.6-.8-3.2-1.3-4.8l1.3-.4c.5 1.6.9 3.2 1.3 4.9l-1.3.3zm-2.9-9.6c-.5-1.6-1.1-3.1-1.7-4.7l1.3-.5c.6 1.5 1.2 3.1 1.8 4.7l-1.4.5zm-3.7-9.4c-.7-1.5-1.4-3-2.2-4.5l1.2-.6c.8 1.5 1.5 3 2.2 4.5l-1.2.6zm-4.6-8.8c-.8-1.4-1.7-2.8-2.6-4.2l1.2-.8c.9 1.4 1.8 2.8 2.7 4.3l-1.3.7zm-5.5-8.3c-1-1.3-2-2.6-3.1-3.9l1.1-.9c1.1 1.3 2.1 2.6 3.2 3.9l-1.2.9zm-6.6-7.7c-1.1-1.2-2.3-2.3-3.6-3.5l.9-1c1.2 1.1 2.5 2.3 3.6 3.5l-.9 1zm-7.3-6.6c-1.3-1-2.6-2-4-3l.8-1.1c1.4 1 2.7 2 4 3l-.8 1.1zm-8.2-5.7c-1.4-.9-2.8-1.7-4.3-2.5l.7-1.2c1.5.8 3 1.6 4.4 2.5l-.8 1.2zm-273.5-2.2v-1.4c1.7 0 3.3 0 5-.1v1.4c-1.7 0-3.3.1-5 .1zm-5.1 0c-1.7 0-3.3 0-5-.1v-1.4c1.7 0 3.3.1 5 .1v1.4zm15.1-.2v-1.4c1.7 0 3.3-.1 5-.2l.1 1.4c-1.7.1-3.4.1-5.1.2zm-25.2-.1c-1.7-.1-3.3-.1-5-.2l.1-1.4c1.7.1 3.3.2 5 .2l-.1 1.4zm35.3-.3l-.1-1.4c1.7-.1 3.3-.2 5-.3l.1 1.4c-1.6.1-3.3.2-5 .3zm-45.3-.2c-1.7-.1-3.3-.3-5-.4l.1-1.4c1.6.2 3.3.3 5 .4l-.1 1.4zm55.4-.3l-.1-1.4c1.7-.1 3.3-.2 5-.3l.1 1.4c-1.6 0-3.3.2-5 .3zm-65.5-.6c-1.7-.2-3.3-.4-5-.6l.2-1.4c1.6.2 3.3.4 4.9.6l-.1 1.4zm75.5-.1l-.1-1.4c1.7-.1 3.3-.3 5-.4l.1 1.4c-1.6.1-3.2.2-5 .4zm224.6-.8c-1.5-.7-3-1.3-4.6-1.9l.5-1.3c1.6.6 3.1 1.3 4.6 2l-.5 1.2zm-214.5 0l-.1-1.4c1.7-.1 3.3-.3 5-.4l.1 1.4c-1.7.1-3.3.2-5 .4zm-95.7-.5c-1.7-.3-3.3-.6-4.9-.9l.3-1.4c1.6.3 3.3.6 4.9.9l-.3 1.4zm105.8-.4l-.1-1.4c1.7-.2 3.3-.3 5-.5l.1 1.4c-1.7.1-3.4.3-5 .5zm10-1l-.1-1.4c1.7-.2 3.3-.3 5-.5l.1 1.4c-1.7.2-3.4.3-5 .5zm-125.6-.5c-1.6-.4-3.3-.7-4.9-1.1l.3-1.4c1.6.4 3.2.8 4.8 1.1l-.2 1.4zm135.5-.5l-.1-1.4 5-.5.1 1.4-5 .5zm175.2-.7c-1.5-.5-3.1-1-4.8-1.4l.4-1.4c1.6.4 3.3.9 4.8 1.4l-.4 1.4zm-165.1-.3l-.1-1.4 5-.5.1 1.4-5 .5zM99 850.8l-4.8-1.5.4-1.3c1.6.5 3.2 1 4.8 1.4l-.4 1.4zm165.5-.1l-.1-1.4 5-.5.1 1.4-5 .5zm9.9-1l-.1-1.4c1.7-.2 3.3-.3 5-.5l.1 1.4c-1.5.1-3.2.3-5 .5zm135.5-.3c-1.6-.4-3.3-.7-4.9-.9l.2-1.4c1.7.3 3.3.6 4.9 1l-.2 1.3zm-125.4-.7l-.1-1.4c1.7-.2 3.3-.3 5-.5l.1 1.4c-1.7.2-3.4.4-5 .5zm10.1-.9l-.1-1.4c1.7-.1 3.3-.3 5-.4l.1 1.4c-1.7.1-3.4.3-5 .4zm105.4-.1c-1.6-.2-3.3-.4-4.9-.6l.2-1.4c1.7.2 3.3.4 5 .6l-.3 1.4zm-310.6 0c-.6-.2-1.3-.5-1.9-.7-.9-.4-1.9-.7-2.8-1.1l.6-1.3c.9.4 1.8.8 2.7 1.1.6.2 1.3.5 1.9.7l-.5 1.3zm215.2-.7l-.1-1.4c1.7-.1 3.3-.3 5-.4l.1 1.4c-1.7.1-3.3.3-5 .4zm85.5-.5c-1.7-.2-3.3-.3-5-.5l.1-1.4c1.7.1 3.3.3 5 .5l-.1 1.4zm-75.5-.2l-.1-1.4c1.7-.1 3.3-.2 5-.3l.1 1.4c-1.6 0-3.3.2-5 .3zm65.4-.6c-1.7-.1-3.3-.2-5-.3l.1-1.4c1.7.1 3.3.2 5 .3l-.1 1.4zm-55.3 0l-.1-1.4c1.7-.1 3.3-.2 5-.2l.1 1.4c-1.7-.1-3.3 0-5 .2zm10.1-.5l-.1-1.4c1.7-.1 3.3-.1 5-.2v1.4c-1.6 0-3.2.1-4.9.2zm35.2 0c-1.7-.1-3.3-.1-5-.2v-1.4c1.7 0 3.3.1 5 .2v1.4zm-25.2-.2v-1.4c1.7 0 3.3-.1 5-.1v1.4c-1.6-.1-3.2-.1-5 .1zm15.1-.1h-5v-1.4h5v1.4zm-279.8-1.2c-1.5-.8-2.9-1.6-4.4-2.5l.7-1.2c1.4.9 2.8 1.7 4.3 2.5l-.6 1.2zm-8.6-5.5c-1.3-1-2.7-2-4-3.1l.9-1.1c1.3 1.1 2.6 2.1 3.9 3.1l-.8 1.1zm-7.8-6.5c-1.2-1.2-2.4-2.4-3.5-3.6l1-.9c1.1 1.2 2.3 2.4 3.5 3.6l-1 .9zm-6.8-7.6c-1-1.3-2.1-2.6-3.1-4l1.1-.8c1 1.4 2 2.7 3 3.9l-1 .9zm-6-8.2c-.9-1.4-1.8-2.8-2.6-4.3l1.2-.7c.8 1.4 1.7 2.9 2.6 4.2l-1.2.8zm-5-8.7c-.8-1.5-1.5-3-2.2-4.5l1.3-.7c.7 1.5 1.4 3 2.2 4.5l-1.3.7zm-4.3-9.2c-.6-1.5-1.3-3.1-1.9-4.7l1.3-.5c.6 1.6 1.2 3.1 1.8 4.6l-1.2.6zm-3.7-9.5l-1.5-4.8 1.3-.4c.5 1.6 1 3.2 1.5 4.7l-1.3.5zm-2.9-9.6c-.4-1.6-.8-3.2-1.2-4.9l1.4-.3c.4 1.6.8 3.3 1.2 4.8l-1.4.4zm-2.2-9.9c-.3-1.6-.6-3.3-.9-4.9l1.4-.2c.3 1.6.6 3.3.9 4.9l-1.4.2zM31 759c-.2-1.6-.5-3.3-.7-5l1.4-.2c.2 1.7.4 3.3.7 4.9l-1.4.3zm-1.2-10c-.2-1.7-.3-3.3-.4-5l1.4-.1c.1 1.7.3 3.3.4 5l-1.4.1zm-.8-10.1c-.1-1.7-.2-3.3-.2-5h1.4c.1 1.7.1 3.3.2 5H29zm-.3-10.1v-5h1.4v5h-1.4zm1.4-10.1h-1.4c0-1.7.1-3.3.2-5l1.4.1c-.1 1.6-.2 3.3-.2 4.9zm.4-9.9l-1.4-.1c.1-1.7.2-3.3.3-5l1.4.1c0 1.6-.2 3.3-.3 5zm.8-10.1l-1.4-.1c.2-1.7.3-3.3.5-5l1.4.2c-.2 1.6-.3 3.3-.5 4.9zm1.1-10l-1.4-.2c.2-1.6.4-3.3.7-5l1.4.2c-.2 1.7-.5 3.4-.7 5zm1.5-9.9l-1.4-.2c.3-1.6.5-3.3.8-4.9l1.4.2c-.3 1.6-.6 3.2-.8 4.9zm1.7-9.9l-1.4-.3c.3-1.6.6-3.3 1-4.9l1.4.3c-.4 1.6-.7 3.3-1 4.9zm2-9.9l-1.4-.3c.4-1.6.7-3.3 1.1-4.9l1.4.3c-.3 1.7-.8 3.3-1.1 4.9zm2.3-9.8l-1.4-.3c.4-1.6.8-3.2 1.2-4.9l1.4.4-1.2 4.8zm2.6-9.7l-1.3-.4c.4-1.6.9-3.2 1.4-4.8l1.3.4c-.5 1.5-1 3.2-1.4 4.8zm2.7-9.7l-1.3-.4 1.5-4.8 1.3.4c-.5 1.7-1 3.3-1.5 4.8zm3-9.6l-1.3-.4c.5-1.6 1-3.2 1.6-4.7l1.3.5c-.5 1.5-1 3.1-1.6 4.6zm3.3-9.4l-1.3-.5c.6-1.6 1.2-3.1 1.8-4.7l1.3.5c-.6 1.5-1.2 3.1-1.8 4.7zm3.8-9.3l-1.3-.6c.7-1.5 1.4-3 2.2-4.5l1.3.6c-.8 1.5-1.5 3-2.2 4.5zm4.5-9l-1.2-.7c.8-1.4 1.6-2.9 2.5-4.4l1.2.7c-.9 1.5-1.7 3-2.5 4.4zm5.1-8.5l-1.2-.8c.9-1.4 1.8-2.8 2.8-4.2l1.1.8-2.7 4.2zm5.8-8.2l-1.1-.8c1-1.3 2-2.6 3.1-4l1.1.9c-1.1 1.2-2.1 2.6-3.1 3.9zM77 568l-1.1-.9c1.1-1.2 2.2-2.5 3.3-3.7l1 .9c-1.1 1.1-2.2 2.5-3.2 3.7zm6.8-7.4l-1-1c1.1-1.3 2.3-2.4 3.6-3.5l1 1c-1.3 1.1-2.5 2.3-3.6 3.5zm7.2-6.9l-.9-1c1.2-1.1 2.5-2.2 3.7-3.3l.9 1.1c-1.3.9-2.5 2-3.7 3.2zm7.6-6.7l-.9-1.1c1.3-1.1 2.6-2.1 3.9-3.2l.9 1.1c-1.4 1.1-2.7 2.2-3.9 3.2zm7.8-6.1l-.8-1.1c1.3-1 2.7-2 4-3l.8 1.1c-1.2 1-2.7 2-4 3zm8.2-6l-.8-1.2c1.4-.9 2.8-1.9 4.2-2.8l.8 1.2c-1.5 1-2.9 1.9-4.2 2.8zm8.4-5.5l-.8-1.2c1.4-.9 2.8-1.8 4.3-2.6l.7 1.2c-1.4.9-2.8 1.7-4.2 2.6zm8.5-5.3l-.7-1.2c1.4-.8 2.9-1.7 4.3-2.5l.7 1.2c-1.4.9-2.9 1.7-4.3 2.5zm8.8-4.9l-.7-1.2c1.5-.8 2.9-1.6 4.4-2.4l.7 1.2c-1.5.8-2.9 1.6-4.4 2.4zm8.8-4.6l-.6-1.2c1.5-.8 3-1.5 4.5-2.2l.6 1.3c-1.5.6-3 1.3-4.5 2.1zm9.1-4.6l-.6-1.3 4.5-2.1.6 1.3-4.5 2.1zm9.1-4.2l-.6-1.3c1.5-.7 3-1.4 4.6-2l.6 1.3c-1.5.7-3.1 1.3-4.6 2zm9.2-4l-.5-1.3c1.5-.7 3.1-1.3 4.6-1.9l.5 1.3c-1.5.6-3 1.3-4.6 1.9zm9.3-3.8l-.5-1.3c1.5-.6 3.1-1.2 4.7-1.9l.5 1.3c-1.6.5-3.1 1.3-4.7 1.9zm9.4-3.8l-.5-1.3c1.6-.6 3.1-1.2 4.7-1.8l.5 1.3c-1.6.6-3.1 1.2-4.7 1.8zm9.4-3.5l-.5-1.3c1.6-.6 3.1-1.1 4.7-1.7l.5 1.3c-1.5.6-3.1 1.2-4.7 1.7zm9.5-3.3l-.5-1.3c1.6-.6 3.2-1.1 4.7-1.6l.5 1.3c-1.6.5-3.1 1-4.7 1.6zm9.6-3.3l-.4-1.3c1.6-.5 3.2-1.1 4.8-1.6l.4 1.3c-1.7.6-3.3 1.1-4.8 1.6zm9.5-3.2l-.4-1.3 4.8-1.5.4 1.3-4.8 1.5zm9.6-3l-.4-1.3 4.8-1.5.4 1.3-4.8 1.5zm9.6-3l-.4-1.3c1.6-.5 3.2-1 4.8-1.4l.4 1.3c-1.6.5-3.2 1-4.8 1.4zm9.7-2.8l-.4-1.3c1.6-.5 3.2-.9 4.8-1.4l.4 1.3c-1.6.5-3.2.9-4.8 1.4zm9.6-2.8l-.4-1.3c1.6-.5 3.2-.9 4.8-1.4l.4 1.3c-1.6.4-3.2.9-4.8 1.4zm9.7-2.8l-.4-1.3c1.6-.5 3.2-.9 4.8-1.3l.4 1.3c-1.6.4-3.2.9-4.8 1.3zm9.8-2.7l-.4-1.3 4.8-1.3.4 1.3-4.8 1.3zm9.6-2.6l-.4-1.4 4.8-1.3.4 1.4-4.8 1.3zm9.8-2.6l-.4-1.4 4.8-1.3.4 1.4-4.8 1.3zm9.7-2.6l-.4-1.4 4.8-1.3.4 1.4-4.8 1.3zm9.7-2.7l-.4-1.4 4.8-1.3.4 1.4-4.8 1.3zm9.8-2.6l-.4-1.4c1.6-.4 3.2-.9 4.8-1.3l.4 1.3c-1.6.5-3.2.9-4.8 1.4zm9.7-2.7l-.4-1.3c1.6-.5 3.2-.9 4.8-1.3l.4 1.3c-1.6.4-3.2.8-4.8 1.3zm9.7-2.7l-.4-1.3c1.6-.5 3.2-.9 4.8-1.4l.4 1.3c-1.5.4-3.1.9-4.8 1.4zm9.7-2.8l-.4-1.3c1.6-.5 3.2-1 4.8-1.4l.4 1.3c-1.6.4-3.2.9-4.8 1.4zm9.6-3.1l-.4-1.3 4.8-1.5.4 1.3c-1.5.5-3.1 1-4.8 1.5zm9.7-3l-.4-1.3c1.6-.5 3.2-1.1 4.7-1.6l.5 1.3c-1.6.5-3.2 1-4.8 1.6zm9.4-3.3l-.5-1.3c1.6-.6 3.2-1.2 4.7-1.8l.5 1.3c-1.5.6-3 1.2-4.7 1.8zm9.5-3.7l-.5-1.3c1.6-.7 3.1-1.3 4.6-2l.6 1.3c-1.6.7-3.1 1.4-4.7 2zm9.3-4.2l-.7-1.2c1.5-.7 3-1.5 4.4-2.2l.7 1.2c-1.4.7-2.9 1.5-4.4 2.2zm8.8-4.7l-.7-1.2c1.5-.9 2.9-1.7 4.2-2.6l.8 1.2c-1.3.9-2.8 1.8-4.3 2.6zm8.6-5.4l-.8-1.1c1.4-1 2.7-2 3.9-3.1l.9 1.1c-1.3.9-2.6 2-4 3.1zm7.6-6.8l-1-1c1.2-1.2 2.2-2.5 3.2-3.7l1.1.8c-.9 1.4-2 2.7-3.3 3.9zm6.1-8.2l-1.2-.6c.8-1.4 1.4-3 1.8-4.5l1.3.4c-.5 1.6-1.1 3.1-1.9 4.7zm2.7-9.9l-1.4-.1v-1.2c0-1.2-.1-2.5-.3-3.7l1.4-.2c.2 1.3.3 2.6.3 3.9.1.4.1.9 0 1.3zm-2.9-9.7c-.5-1.6-1.2-3.1-2-4.5l1.2-.7c.8 1.5 1.5 3.1 2.1 4.7l-1.3.5zm-4.6-8.7c-.9-1.3-1.9-2.6-3-3.9l1.1-.9c1.1 1.4 2.1 2.7 3 4l-1.1.8zm-6.3-7.7c-1.1-1.2-2.3-2.3-3.5-3.5l1-1c1.3 1.2 2.5 2.4 3.6 3.6l-1.1.9zm-7.2-6.9c-1.2-1.1-2.5-2.1-3.8-3.2l.9-1.1c1.3 1.1 2.6 2.2 3.9 3.2l-1 1.1zm-7.8-6.3c-1.3-1-2.6-2-4-3l.8-1.1c1.4 1 2.8 2 4 3l-.8 1.1zm-8.2-5.8c-1.4-.9-2.7-1.9-4.1-2.8l.8-1.2c1.4.9 2.8 1.9 4.2 2.8l-.9 1.2zm-8.4-5.6l-.2-.1c-1.3-.8-2.6-1.6-4.1-2.4l.7-1.2c1.4.8 2.8 1.6 4.1 2.5l.2.1-.7 1.1zm-8.7-4.9c-1.4-.7-2.9-1.5-4.5-2.2l.6-1.3c1.5.7 3.1 1.5 4.5 2.2l-.6 1.3zm-9.1-4.2c-1.5-.6-3-1.3-4.6-1.9l.5-1.3c1.6.6 3.1 1.3 4.6 1.9l-.5 1.3zm-9.3-3.8c-1.5-.6-3.1-1.1-4.7-1.7l.5-1.3c1.6.6 3.2 1.1 4.7 1.7l-.5 1.3zm-9.5-3.3l-4.8-1.5.4-1.3 4.8 1.5-.4 1.3zm-9.6-2.9c-1.6-.5-3.2-.9-4.8-1.4l.4-1.3c1.6.4 3.2.9 4.8 1.4l-.4 1.3zm-9.7-2.7l-4.8-1.2.3-1.4c1.6.4 3.2.8 4.9 1.2l-.4 1.4zm-9.8-2.4c-1.6-.4-3.2-.8-4.9-1.1l.3-1.4c1.6.4 3.3.8 4.9 1.1l-.3 1.4zm-9.8-2.3c-1.6-.4-3.2-.7-4.9-1.1l.3-1.4c1.6.3 3.3.7 4.9 1.1l-.3 1.4zm-9.8-2.1c-1.6-.3-3.3-.7-4.9-1l.3-1.4c1.6.3 3.3.7 4.9 1l-.3 1.4zm-9.9-2c-1.6-.3-3.3-.6-4.9-.9l.3-1.4c1.6.3 3.3.6 4.9.9l-.3 1.4zm-9.9-1.8c-1.6-.3-3.3-.6-4.9-.9l.2-1.4c1.6.3 3.3.6 4.9.9l-.2 1.4zm-9.9-1.8c-1.6-.3-3.3-.6-4.9-.8l.2-1.4c1.7.3 3.3.6 5 .8l-.3 1.4zm-10-1.6c-1.6-.3-3.3-.5-4.9-.8l.2-1.4c1.6.3 3.3.5 4.9.8l-.2 1.4zm-9.9-1.6c-1.6-.3-3.3-.5-4.9-.8l.2-1.4c1.6.3 3.3.5 4.9.8l-.2 1.4zm-10-1.6l-4.9-.8.2-1.4 4.9.8-.2 1.4zM250 299l-4.9-.7.2-1.4 5 .7-.3 1.4zm-10-1.5l-5-.7.2-1.4 5 .7-.2 1.4zm-10-1.5l-5-.7.2-1.4 5 .7-.2 1.4zm-9.9-1.4l-5-.7.2-1.4 4.9.7-.1 1.4zm-10-1.5c-1.7-.3-3.3-.5-5-.8l.2-1.4c1.6.3 3.3.5 4.9.8l-.1 1.4zm-10-1.5c-1.7-.3-3.3-.5-4.9-.8l.2-1.4c1.6.3 3.3.5 4.9.8l-.2 1.4zm-10-1.6c-1.7-.3-3.3-.6-4.9-.8l.2-1.4c1.6.3 3.3.6 4.9.8l-.2 1.4zm-9.9-1.7c-1.7-.3-3.3-.6-4.9-.9l.3-1.4c1.6.3 3.3.6 4.9.9l-.3 1.4zm-9.9-1.9c-1.7-.3-3.3-.7-4.9-1l.3-1.4c1.6.3 3.2.7 4.9 1l-.3 1.4zm-9.9-2.1c-1.7-.4-3.3-.8-4.9-1.1l.3-1.4c1.6.4 3.2.8 4.9 1.1l-.3 1.4zm-9.8-2.3c-1.2-.3-2.4-.7-3.5-1-.4-.1-.9-.3-1.3-.4l.4-1.3c.4.1.9.3 1.3.4 1.1.3 2.3.7 3.5 1l-.4 1.3zm-9.7-3.1c-1.6-.6-3.2-1.3-4.7-1.9l.6-1.3c1.5.7 3 1.3 4.6 1.9l-.5 1.3zm-9.3-4.2c-1.5-.8-2.9-1.7-4.3-2.6l.8-1.2c1.4 1 2.8 1.8 4.2 2.6l-.7 1.2zm-8.3-5.8c-1.3-1.1-2.6-2.3-3.7-3.5l1-1c1.1 1.2 2.3 2.4 3.6 3.4l-.9 1.1zm-7-7.5c-1-1.4-1.9-2.9-2.6-4.4l1.3-.6c.7 1.5 1.5 2.9 2.4 4.2l-1.1.8zm-4.3-9.3c-.4-1.7-.6-3.4-.7-5.1h1.4c0 1.6.3 3.3.7 4.8l-1.4.3zm1.1-10.1l-1.4-.3c.3-1.7.8-3.3 1.4-4.9l1.3.5c-.6 1.5-1 3.1-1.3 4.7zm3.5-9l-1.2-.7c.9-1.5 1.9-2.9 3-4.2l1.1.9c-1 1.2-2 2.5-2.9 4zm6.3-7.7l-1-1c1.2-1.1 2.5-2.2 3.8-3.3l.9 1.1c-1.3 1-2.6 2.1-3.7 3.2zm7.7-6.1l-.8-1.2c1.4-.9 2.8-1.8 4.3-2.6l.7 1.2c-1.4.8-2.8 1.7-4.2 2.6zm8.7-4.9l-.6-1.3c1.5-.7 3-1.4 4.6-2.1l.5 1.3-4.5 2.1zm9.2-3.9l-.5-1.3c1.5-.6 3.1-1.1 4.8-1.6l.4 1.3c-1.5.5-3.1 1.1-4.7 1.6zm9.6-3l-.4-1.3c1.6-.4 3.2-.9 4.8-1.3l.4 1.3c-1.6.4-3.2.9-4.8 1.3zm9.7-2.7l-.4-1.3c1.6-.5 3.2-.9 4.8-1.4l.4 1.3c-1.6.5-3.2 1-4.8 1.4zm9.7-2.8l-.4-1.3c1.6-.5 3.2-.9 4.8-1.4l.4 1.3c-1.6.5-3.2.9-4.8 1.4zm9.6-2.8l-.4-1.3c1.6-.5 3.2-1 4.8-1.4l.4 1.3c-1.6.5-3.2.9-4.8 1.4zm9.7-2.9l-.4-1.3 4.8-1.5.4 1.3-4.8 1.5zm9.6-3l-.4-1.3 4.8-1.5.4 1.3-4.8 1.5zm9.6-3.1l-.4-1.3c1.6-.5 3.2-1.1 4.7-1.6l.4 1.3c-1.6.5-3.1 1-4.7 1.6zm9.5-3.3l-.5-1.3c1.6-.5 3.2-1.1 4.7-1.6l.5 1.3c-1.5.5-3.1 1.1-4.7 1.6zm9.6-3.3l-.5-1.3c1.6-.6 3.1-1.1 4.7-1.7l.5 1.3c-1.6.6-3.1 1.2-4.7 1.7zm9.4-3.4l-.5-1.3c1.6-.6 3.1-1.2 4.7-1.7l.5 1.3c-1.4.6-3.1 1.2-4.7 1.7zm9.5-3.4l-.5-1.3c1.6-.6 3.1-1.2 4.7-1.8l.5 1.3c-1.6.5-3.1 1.2-4.7 1.8zm9.4-3.7l-.5-1.3c1.6-.6 3.1-1.2 4.6-1.8l.5 1.3c-1.5.5-3 1.2-4.6 1.8zm9.3-3.7l-.5-1.3c1.6-.6 3.1-1.3 4.6-1.9l.5 1.3c-1.4.6-3 1.2-4.6 1.9zm9.4-3.9l-.5-1.3c1.5-.6 3.1-1.3 4.6-2l.6 1.3c-1.6.7-3.2 1.4-4.7 2zm9.3-4l-.6-1.3c1.5-.7 3.1-1.3 4.6-2l.6 1.3c-1.6.7-3.1 1.3-4.6 2zm9.1-4.1l-.6-1.3 4.5-2.1.6 1.3c-1.3.7-2.9 1.4-4.5 2.1zm9.2-4.2l-.6-1.3 4.5-2.1.6 1.3-4.5 2.1zm9.1-4.3l-.6-1.3c1.5-.7 3-1.5 4.5-2.2l.6 1.3c-1.5.6-3 1.4-4.5 2.2zm9-4.6l-.6-1.2c1.5-.8 3-1.5 4.4-2.3l.6 1.2c-1.5.8-2.9 1.5-4.4 2.3zm8.9-4.6l-.7-1.2c1.5-.8 2.9-1.6 4.4-2.4l.7 1.2c-1.4.8-2.9 1.6-4.4 2.4zm8.9-4.9l-.7-1.2c1.5-.8 2.9-1.6 4.3-2.5l.7 1.2c-1.4.8-2.8 1.7-4.3 2.5zm8.7-5l-.7-1.2c1.4-.9 2.9-1.7 4.3-2.5l.7 1.2c-1.4.8-2.8 1.6-4.3 2.5zm8.7-5.2l-.7-1.2c1.4-.9 2.8-1.8 4.2-2.6l.7 1.2c-1.4.8-2.8 1.7-4.2 2.6zm8.4-5.4l-.8-1.2 4.2-2.7.8 1.2c-1.2.8-2.7 1.7-4.2 2.7zm8.5-5.6l-.8-1.2c1.4-1 2.8-1.9 4.1-2.8l.8 1.1c-1.4 1-2.7 1.9-4.1 2.9zm8.3-5.8l-.8-1.1c1.4-1 2.7-2 4-3l.8 1.1c-1.3 1-2.7 2-4 3zm8-6.1l-.9-1.1c1.3-1 2.6-2.1 3.9-3.1l.9 1.1c-1.2 1.1-2.6 2.1-3.9 3.1zm7.9-6.2l-.9-1.1c1.3-1.1 2.6-2.1 3.8-3.2l.9 1.1c-1.2 1.1-2.5 2.1-3.8 3.2zm7.7-6.6l-.9-1.1c1.3-1.1 2.5-2.2 3.7-3.3l.9 1c-1.2 1.2-2.5 2.3-3.7 3.4zm7.5-6.7l-1-1c1.2-1.2 2.4-2.3 3.6-3.5l1 1c-1.2 1.1-2.4 2.3-3.6 3.5zm7.1-7.2l-1-1c1.2-1.2 2.3-2.4 3.4-3.6l1 1c-1.1 1.2-2.2 2.4-3.4 3.6zm6.9-7.3l-1-.9c1.1-1.3 2.2-2.5 3.3-3.8l1.1.9c-1.2 1.2-2.3 2.5-3.4 3.8zm6.5-7.8l-1.1-.9c1-1.3 2.1-2.6 3-3.9l1.1.8c-1 1.3-2 2.7-3 4zm6.1-8l-1.1-.8c1-1.4 1.9-2.7 2.8-4.1l1.2.8c-1 1.2-1.9 2.7-2.9 4.1zm5.5-8.5l-1.2-.7c.9-1.4 1.7-2.9 2.5-4.3l1.2.7c-.7 1.5-1.6 2.9-2.5 4.3zm5-8.8l-1.2-.6c.8-1.5 1.5-3 2.2-4.5l1.3.6c-.7 1.4-1.4 2.9-2.3 4.5zm4.3-9.2l-1.3-.5c.6-1.6 1.2-3.1 1.8-4.6l1.3.5c-.5 1.5-1.1 3.1-1.8 4.6zm3.4-9.6l-1.3-.4c.5-1.6.9-3.2 1.2-4.8l1.4.3c-.4 1.6-.8 3.3-1.3 4.9z"/></g><g id="그룹_5176" transform="translate(323.113 1132.71)"><path id="패스_47345" class="st0" d="M29.4 13l-.7-1.2c.7-.4 1.4-.9 2.1-1.3l.7 1.2c-.7.4-1.4.9-2.1 1.3z"/></g></g><g id="그룹_5178" transform="translate(352.872 309.315)"><path id="패스_47346" class="st0" d="M30.1 41.3h-1.4V14.2l10.6-3.7.4 1.4-9.6 3.3v26.1z"/></g><g id="그룹_5179" transform="translate(43.557 531.606)"><path id="패스_47347" class="st0" d="M30.1 41.3h-1.4V14.1l10.6-3.6.4 1.3-9.6 3.3v26.2z"/></g><g id="그룹_5180" transform="translate(29.658 625.78)"><path id="패스_47348" class="st0" d="M39.7 41.3h-1.4V15.1l-9.6-3.3.4-1.3 10.6 3.6v27.2z"/></g><g id="그룹_5181" transform="translate(330.008 829.438)"><path id="패스_47349" class="st0" d="M30.1 48.6h-1.4V14.9l13-4.4.5 1.3-12.1 4.1v32.7z"/></g><g id="그룹_5182" transform="translate(463.363 838.201)"><path id="패스_47350" class="st0" d="M42.2 48.6h-1.4V15.9l-12.1-4.1.5-1.3 13 4.4v33.7z"/></g><g id="그룹_5183" transform="translate(85.155 193.989)"><path id="패스_47351" class="st0" d="M30.1 41.2h-1.4V14.1l10.6-3.6.5 1.3-9.7 3.3v26.1z"/></g><g id="그룹_5184" transform="translate(115.472 234.277)"><path id="패스_47352" class="st0" d="M39.8 41.2h-1.4V15.1l-9.7-3.3.5-1.3 10.6 3.6v27.1z"/></g><g id="그룹_5186" transform="translate(169.695 102.259)"><path id="패스_47354" class="st1" d="M29.6 87.4s-4 17.8 5.2 30.3c9.3 12.6 51.4 21.5 51.4 21.5l140-87s-6.8-25.5-24.3-40.1C184.6-2.5 29.6 87.4 29.6 87.4z"/></g><g id="그룹_5187" transform="translate(115.361 273.526)"><path id="패스_47355" class="st1" d="M28.7 22.3C28.1 22.5 54 7.5 80.9 11c26.9 3.6 39 35.2 39 35.2l-77.1-9.9-14.1-14z"/></g></g></g></svg>